<?xml version="1.0" standalone="no"?>
<!DOCTYPE svg PUBLIC "-//W3C//DTD SVG 20010904//EN"
 "http://www.w3.org/TR/2001/REC-SVG-20010904/DTD/svg10.dtd">
<svg version="1.0" xmlns="http://www.w3.org/2000/svg"
 width="300.000000pt" height="303.000000pt" viewBox="0 0 300.000000 303.000000"
 preserveAspectRatio="xMidYMid meet">
<metadata>
Created by potrace 1.10, written by Peter Selinger 2001-2011
</metadata>
<g transform="translate(0.000000,303.000000) scale(0.100000,-0.100000)"
fill="#000000" stroke="#000000" stroke-width="30">
<path d="M1481 3019 c-13 -5 -58 -12 -100 -15 -42 -3 -122 -17 -179 -30 -56
-13 -110 -26 -120 -27 -79 -13 -359 -145 -422 -199 -11 -10 -25 -18 -30 -18
-6 0 -10 -4 -10 -8 0 -5 -27 -30 -61 -58 -93 -75 -196 -184 -241 -255 -22 -35
-53 -82 -68 -104 -41 -60 -140 -249 -140 -268 0 -8 -4 -17 -10 -19 -5 -1 -12
-19 -14 -38 -3 -20 -9 -47 -14 -60 -34 -90 -57 -243 -67 -455 -4 -101 26 -322
55 -395 12 -30 24 -66 27 -80 5 -28 26 -81 48 -123 8 -16 15 -33 15 -39 0 -16
71 -130 98 -158 13 -14 57 -65 97 -115 99 -123 188 -202 363 -322 19 -12 51
-30 73 -40 21 -9 39 -20 39 -24 0 -13 102 -60 203 -94 130 -42 142 -45 236
-50 43 -3 102 -9 131 -15 75 -14 235 -12 305 4 33 8 72 14 88 14 15 0 64 14
110 31 132 52 136 53 141 50 2 -2 12 3 22 12 11 9 35 22 54 29 165 63 512 327
577 440 15 25 38 61 52 80 24 32 111 179 111 187 0 2 11 26 25 55 21 44 65
186 89 291 4 16 9 70 12 120 2 51 9 116 14 146 13 71 13 197 0 241 -6 19 -12
64 -15 100 -2 36 -18 105 -35 153 -16 49 -30 93 -30 98 0 24 -99 212 -144 274
-28 39 -59 81 -68 95 -21 33 -93 107 -146 150 -24 19 -50 41 -57 48 -8 7 -35
29 -61 49 -26 19 -57 44 -68 54 -35 33 -157 111 -219 141 -34 16 -79 38 -99
48 -20 11 -42 20 -47 20 -6 0 -34 11 -63 24 -54 24 -100 37 -153 42 -16 1 -50
7 -75 13 -56 13 -197 13 -229 0z m165 -18 c11 9 14 9 14 0 0 -8 8 -10 21 -6
15 5 19 4 15 -4 -4 -6 -2 -11 3 -11 6 0 11 8 11 18 1 15 2 15 16 -3 13 -17 16
-18 24 -5 8 13 10 12 10 -2 0 -10 5 -18 10 -18 6 0 10 5 10 10 0 6 5 10 10 10
6 0 10 -8 10 -17 0 -13 3 -14 12 -5 17 17 29 15 22 -3 -4 -8 -1 -15 5 -15 6 0
11 6 11 13 0 8 4 7 10 -3 9 -13 11 -13 20 0 8 12 10 10 10 -10 1 -24 1 -24 15
-6 13 17 15 17 15 3 0 -11 5 -14 17 -10 10 4 14 2 9 -5 -3 -6 -2 -13 4 -17 5
-3 10 -1 10 4 0 6 5 11 10 11 6 0 10 -7 10 -16 0 -14 3 -14 15 -4 12 10 15 9
16 -6 0 -11 3 -14 6 -6 8 20 23 14 24 -10 0 -13 3 -17 6 -10 8 20 23 14 23
-10 1 -22 1 -22 14 -5 14 18 33 7 22 -12 -9 -13 26 -23 38 -11 17 17 28 11 20
-12 -6 -20 -5 -21 9 -10 13 11 15 10 10 -10 -4 -21 -3 -22 10 -6 15 19 29 14
20 -8 -3 -8 0 -14 6 -14 6 0 11 5 11 10 0 6 8 5 19 -2 11 -7 17 -16 14 -21 -3
-5 -9 -3 -14 4 -5 8 -9 10 -9 4 0 -5 5 -17 10 -25 8 -13 11 -12 23 4 15 21 34
6 21 -16 -5 -8 -2 -9 10 -5 14 5 17 3 12 -8 -3 -8 -1 -15 4 -15 6 0 10 -7 10
-17 0 -15 2 -15 19 1 20 18 39 7 25 -15 -4 -7 0 -9 14 -5 17 6 19 3 14 -16 -5
-21 -4 -22 12 -9 21 17 33 7 16 -14 -15 -18 1 -20 18 -3 9 9 12 8 12 -5 0 -9
6 -17 13 -17 8 0 7 -4 -3 -11 -11 -8 -8 -9 13 -4 26 5 28 4 21 -17 -6 -20 -5
-21 9 -10 9 8 18 9 21 3 4 -5 -1 -14 -10 -19 -10 -6 -13 -12 -6 -16 6 -3 13
-2 17 4 3 5 11 10 17 10 6 0 6 -6 -2 -15 -7 -9 -10 -19 -6 -23 4 -4 14 2 22
12 11 16 14 17 14 4 0 -9 -6 -18 -12 -21 -7 -2 -9 -8 -5 -13 5 -5 14 -2 21 8
12 16 14 16 29 1 15 -16 15 -18 0 -36 -17 -18 -16 -18 12 -12 28 6 29 6 11 -9
-11 -9 -17 -19 -13 -22 4 -4 13 -1 22 6 9 7 19 10 22 6 4 -4 1 -12 -7 -17 -11
-8 -9 -9 10 -4 l25 6 -22 -19 c-26 -23 -20 -36 9 -21 11 6 22 8 25 5 3 -3 -2
-8 -11 -12 -9 -3 -16 -10 -16 -15 0 -6 9 -5 20 1 12 6 20 7 20 1 0 -5 -6 -12
-12 -15 -7 -3 -3 -3 10 0 24 6 31 -10 7 -20 -8 -3 -15 -10 -15 -16 0 -7 6 -8
19 0 25 13 42 13 19 -1 -23 -13 -22 -21 0 -47 13 -15 22 -18 34 -11 11 6 19 6
23 -1 3 -5 -6 -15 -22 -21 -16 -7 -23 -13 -15 -16 7 -3 19 1 28 7 8 7 17 10
21 7 3 -4 -6 -12 -20 -18 -15 -7 -24 -16 -21 -21 3 -5 17 -2 30 7 13 8 24 14
25 13 7 -28 7 -48 -2 -48 -5 0 -7 5 -4 10 3 6 -3 10 -14 10 -12 0 -21 -4 -21
-10 0 -5 7 -10 15 -10 8 0 15 -4 15 -9 0 -5 10 -7 22 -3 14 3 19 2 14 -6 -4
-7 -14 -12 -22 -12 -8 0 -14 -4 -14 -9 0 -4 12 -7 28 -5 l27 4 -28 -13 c-15
-7 -25 -16 -21 -20 4 -3 15 -2 25 3 12 7 20 7 24 0 3 -5 -3 -10 -14 -10 -12 0
-21 -5 -21 -10 0 -6 10 -8 24 -4 13 3 27 1 30 -5 5 -7 -3 -11 -18 -11 -14 0
-26 -5 -26 -11 0 -7 10 -9 25 -5 14 4 25 2 25 -4 0 -5 -8 -10 -17 -11 -13 0
-11 -3 7 -11 21 -9 22 -12 8 -15 -10 -3 -18 -8 -18 -11 0 -16 18 -33 30 -30 7
2 15 -3 17 -9 3 -8 -4 -13 -17 -13 -12 0 -18 -4 -15 -11 4 -6 14 -8 23 -4 16
6 32 -10 32 -32 0 -7 -9 -13 -20 -13 -11 0 -20 -5 -20 -10 0 -6 11 -8 28 -4
18 5 24 3 17 -4 -5 -5 -19 -12 -30 -15 -15 -4 -13 -5 8 -6 31 -1 38 -21 7 -21
-11 0 -20 -5 -20 -11 0 -7 9 -9 23 -6 20 5 20 5 5 -7 -24 -17 -23 -25 2 -19
11 3 20 0 20 -6 0 -6 -7 -11 -15 -11 -8 0 -15 -4 -15 -10 0 -5 7 -7 15 -4 8 4
15 1 15 -5 0 -6 -6 -11 -12 -12 -7 0 -4 -4 7 -9 17 -7 17 -9 3 -9 -22 -1 -24
-21 -3 -21 8 0 15 -9 15 -20 0 -11 -4 -20 -10 -20 -5 0 -7 7 -4 15 4 8 1 15
-5 15 -19 0 -13 -40 7 -41 11 -1 9 -4 -8 -9 -24 -8 -24 -8 -2 -9 28 -1 29 -21
1 -21 -11 0 -18 -4 -14 -10 3 -5 12 -7 20 -3 8 3 15 0 15 -6 0 -6 -7 -11 -15
-11 -8 0 -15 -4 -15 -10 0 -5 7 -10 15 -10 24 0 17 -30 -7 -31 -17 -1 -19 -2
-5 -6 9 -2 17 -9 17 -14 0 -5 -8 -10 -17 -10 -17 -1 -17 -2 0 -6 9 -2 17 -9
17 -14 0 -6 -4 -8 -9 -4 -5 3 -12 1 -16 -5 -3 -5 -1 -10 4 -10 6 0 11 -4 11
-10 0 -5 -7 -7 -15 -4 -8 4 -15 1 -15 -5 0 -6 9 -11 21 -11 12 0 17 -4 14 -11
-4 -6 -13 -8 -21 -5 -8 3 -14 2 -14 -3 0 -5 10 -12 23 -16 21 -8 21 -8 -5 -12
-31 -5 -39 -23 -10 -23 11 0 18 -8 19 -20 1 -15 -5 -20 -25 -21 l-27 -1 30
-14 30 -14 -29 2 c-39 4 -45 -17 -9 -30 l28 -10 -30 -2 -30 -2 30 -13 30 -14
-28 -1 c-16 0 -26 -4 -22 -10 3 -5 12 -7 20 -3 8 3 15 0 15 -6 0 -6 -10 -12
-22 -12 -17 -1 -19 -2 -5 -6 24 -6 21 -34 -4 -40 -21 -6 -21 -7 -3 -21 18 -14
18 -14 -3 -9 -14 3 -24 -1 -27 -10 -10 -24 -7 -33 9 -33 8 0 15 -5 15 -11 0
-7 -10 -9 -26 -5 -17 5 -23 3 -19 -4 3 -5 15 -10 26 -10 11 0 17 -5 14 -10 -3
-6 -18 -8 -33 -5 -26 5 -26 5 -4 -6 12 -7 22 -16 22 -21 0 -5 -9 -4 -20 2 -12
7 -20 7 -20 1 0 -5 9 -13 20 -16 27 -9 16 -25 -13 -18 -22 5 -22 5 -2 -11 20
-17 20 -17 -5 -10 -22 6 -23 5 -11 -10 12 -14 12 -16 -5 -10 -18 5 -18 5 -1
-9 23 -19 22 -30 -3 -22 -11 4 -20 2 -20 -4 0 -6 8 -11 18 -12 11 0 12 -2 4
-6 -7 -3 -19 1 -27 7 -10 8 -15 9 -15 2 0 -6 9 -14 20 -17 11 -3 20 -11 20
-16 0 -6 -8 -5 -21 1 -11 7 -23 9 -26 6 -3 -3 2 -8 11 -12 9 -3 16 -10 16 -15
0 -6 -9 -5 -20 1 -24 13 -28 -5 -4 -18 11 -6 13 -12 6 -16 -6 -3 -13 -2 -17 4
-3 5 -11 10 -17 10 -6 0 -3 -10 8 -21 19 -22 19 -22 -6 -14 -23 7 -24 7 -10
-10 14 -17 13 -18 -2 -12 -10 3 -18 2 -18 -3 0 -6 5 -10 10 -10 6 0 10 -5 10
-11 0 -6 -9 -8 -22 -3 -21 6 -22 5 -8 -11 8 -11 10 -16 3 -12 -6 4 -14 3 -18
-3 -3 -5 -1 -10 4 -10 6 0 11 -5 11 -11 0 -6 -7 -8 -16 -5 -12 4 -14 1 -9 -14
7 -21 -10 -29 -18 -7 -2 6 -8 9 -12 5 -4 -4 -2 -15 6 -25 12 -15 12 -16 -5
-10 -15 6 -17 4 -13 -13 4 -17 3 -19 -9 -9 -11 9 -14 8 -14 -5 0 -9 5 -16 11
-16 5 0 7 -5 4 -10 -5 -8 -12 -7 -22 2 -14 11 -15 10 -9 -12 6 -23 6 -23 -7
-7 -13 15 -16 15 -27 3 -6 -8 -9 -24 -5 -36 7 -23 -4 -26 -24 -7 -11 10 -12 7
-7 -13 7 -24 6 -24 -8 -6 -16 20 -16 20 -30 1 -9 -12 -11 -26 -6 -35 6 -11 3
-20 -10 -28 -16 -10 -21 -9 -29 6 -7 10 -11 12 -11 4 0 -7 -4 -10 -10 -7 -12
7 -12 3 -4 -20 5 -13 8 -14 15 -3 7 11 9 11 9 0 0 -8 -9 -16 -20 -19 -11 -3
-20 -10 -20 -15 0 -6 -8 -4 -17 3 -15 12 -16 12 -10 -3 7 -21 -3 -23 -22 -6
-11 11 -12 8 -6 -12 7 -22 6 -23 -9 -11 -14 12 -16 11 -16 -10 0 -19 -2 -21
-10 -9 -8 12 -10 10 -11 -10 -1 -17 -3 -19 -6 -7 -2 9 -9 17 -14 17 -6 0 -7
-9 -3 -22 6 -21 5 -22 -11 -8 -17 14 -18 13 -12 -4 5 -12 3 -23 -5 -28 -19
-12 -28 -10 -28 7 0 8 -5 15 -10 15 -6 0 -8 -12 -5 -27 3 -16 2 -22 -1 -15 -8
17 -24 15 -24 -2 0 -22 -19 -29 -37 -14 -14 11 -15 10 -8 -12 7 -24 7 -24 -11
-8 -24 21 -48 10 -37 -18 6 -17 5 -17 -10 -5 -16 12 -17 12 -11 -5 5 -18 5
-18 -9 -1 -19 23 -30 22 -17 -3 7 -14 7 -20 0 -20 -5 0 -10 5 -10 10 0 6 -4
10 -10 10 -5 0 -7 -8 -3 -17 5 -15 3 -15 -11 2 -17 20 -17 20 -13 -2 4 -17 1
-23 -13 -23 -10 0 -21 6 -24 13 -4 6 -4 2 -2 -10 5 -26 -9 -31 -18 -8 -3 8
-12 12 -20 9 -9 -3 -12 -12 -8 -22 5 -15 4 -16 -13 -2 -17 14 -18 13 -12 -3 3
-9 2 -17 -3 -17 -6 0 -10 6 -11 13 0 6 -4 3 -9 -8 -6 -13 -9 -15 -9 -5 -1 13
-2 13 -11 0 -8 -13 -10 -12 -10 3 0 9 -5 17 -10 17 -6 0 -8 -11 -4 -25 8 -31
-3 -33 -16 -3 -9 23 -9 23 -10 -2 l-2 -25 -8 25 -8 25 -1 -27 c-1 -32 -21 -39
-21 -8 0 11 -5 20 -11 20 -6 0 -9 -8 -7 -18 3 -10 0 -19 -6 -20 -6 0 -21 -3
-33 -6 -13 -2 -26 0 -29 6 -4 7 -2 8 4 4 7 -4 12 -1 12 8 0 18 -2 18 -23 10
-9 -3 -13 -13 -10 -25 7 -24 -12 -25 -27 -1 -9 14 -10 13 -4 -8 7 -25 7 -25
-15 -6 -21 19 -21 19 -22 0 0 -15 -2 -14 -11 6 l-11 25 -7 -25 c-5 -16 -8 -19
-9 -7 -1 9 -6 17 -12 17 -5 0 -8 -4 -4 -9 3 -5 1 -12 -5 -16 -5 -3 -10 3 -10
14 0 28 -20 27 -21 -1 l-2 -23 -4 23 c-3 14 -12 22 -24 22 -13 0 -19 -7 -19
-22 0 -18 -2 -20 -9 -8 -6 8 -7 18 -5 22 3 4 0 8 -5 8 -6 0 -11 -7 -11 -16 0
-8 -5 -12 -11 -9 -6 4 -8 13 -5 21 3 8 1 14 -4 14 -6 0 -10 -7 -10 -15 0 -8
-5 -15 -11 -15 -6 0 -9 7 -5 15 3 8 1 15 -4 15 -6 0 -10 -7 -10 -16 0 -8 -5
-12 -11 -9 -6 4 -8 13 -5 21 3 8 1 14 -4 14 -6 0 -11 -10 -11 -22 -1 -19 -3
-17 -9 7 l-8 30 -1 -27 c-1 -32 -21 -39 -21 -8 0 13 -7 20 -20 20 -11 0 -20
-7 -20 -15 0 -8 -5 -15 -11 -15 -6 0 -8 9 -4 20 8 25 -3 26 -21 3 -13 -17 -14
-17 -8 2 6 20 6 20 -11 0 -17 -20 -17 -20 -12 3 3 12 1 22 -4 22 -5 0 -9 -10
-9 -22 0 -18 -2 -20 -9 -9 -5 8 -7 21 -4 30 3 9 -4 5 -15 -8 -21 -26 -42 -21
-42 10 0 11 -4 18 -10 14 -5 -3 -6 -13 -3 -22 4 -11 3 -14 -5 -9 -7 4 -12 14
-12 22 0 8 -2 14 -4 14 -2 0 -11 3 -20 6 -11 4 -16 0 -17 -12 -1 -14 -3 -13
-9 6 -4 14 -9 18 -10 10 -1 -11 -4 -9 -10 5 -8 19 -9 19 -9 -2 -1 -31 -21 -29
-21 2 0 14 -4 25 -10 25 -5 0 -10 -7 -10 -15 0 -8 -4 -15 -10 -15 -5 0 -7 7
-4 15 4 8 2 15 -4 15 -6 0 -12 -5 -14 -10 -2 -6 -19 1 -38 15 -19 14 -62 39
-95 56 -33 16 -76 43 -95 59 -19 17 -38 30 -42 30 -28 0 -234 198 -323 309
-27 35 -60 75 -73 90 -56 64 -99 154 -164 346 -56 167 -79 373 -57 521 7 49
12 96 10 106 -3 22 29 189 40 208 4 8 9 11 9 7 0 -5 5 -5 11 -1 8 4 8 9 1 13
-18 11 7 98 61 209 8 17 13 19 20 10 6 -9 7 -7 3 5 -7 20 54 137 88 171 11 11
22 28 23 37 4 23 43 89 53 89 5 0 12 10 15 21 11 34 173 190 245 237 36 23 74
51 85 61 23 23 101 68 192 111 121 58 345 120 448 124 22 1 45 4 50 7 6 3 22
5 38 4 15 0 27 3 27 8 0 4 4 6 9 3 5 -4 21 -2 35 4 17 6 27 6 32 -1 4 -7 10
-6 19 1 10 8 14 7 18 -2 4 -10 8 -10 16 2 8 11 11 12 11 2 0 -10 5 -8 18 4 16
17 17 17 20 0 3 -13 7 -15 18 -5z"/>
<path d="M1416 2958 c-52 -11 -95 -38 -89 -55 6 -14 83 -58 83 -47 0 3 19 -5
43 -19 23 -14 62 -31 87 -38 60 -17 163 -72 227 -121 63 -48 143 -137 143
-159 0 -9 7 -23 16 -30 18 -15 84 -112 101 -149 27 -59 63 -188 63 -228 0 -24
-9 -72 -21 -108 -11 -35 -19 -71 -16 -78 3 -7 -6 -53 -20 -102 -26 -93 -59
-147 -132 -219 -43 -41 -54 -63 -22 -43 15 9 23 9 35 -2 9 -7 19 -10 23 -6 4
3 -2 13 -13 22 -10 8 -13 12 -5 8 11 -5 13 -3 8 10 -5 13 -1 19 13 23 11 3 18
9 15 13 -3 5 -1 12 5 15 6 4 9 1 8 -6 -2 -6 3 -14 10 -16 9 -4 11 2 6 22 -6
24 -5 27 15 20 12 -4 21 -2 21 4 0 6 -8 11 -17 12 -14 0 -13 3 5 11 13 6 21
17 18 24 -3 7 1 15 8 17 9 3 12 15 9 31 -3 15 -1 26 5 26 7 0 9 15 6 38 -3 30
-2 33 6 17 9 -18 10 -17 7 8 -3 15 -1 27 4 27 4 0 8 19 7 43 -1 23 7 69 16
102 34 115 -12 291 -110 425 -23 31 -47 68 -54 81 -44 82 -162 184 -287 247
-46 23 -90 42 -98 42 -9 0 -49 15 -88 34 -40 19 -80 37 -89 40 -26 8 -21 33 5
25 1 0 15 5 31 11 23 8 31 8 38 -2 6 -10 8 -9 8 2 0 9 9 16 20 16 11 0 20 -6
20 -13 0 -7 5 -13 10 -13 6 0 10 7 10 15 0 8 5 15 11 15 6 0 9 -7 5 -15 -3 -9
0 -15 9 -15 9 0 12 6 9 15 -5 12 3 15 40 15 33 0 46 -4 46 -14 0 -24 39 -30
57 -9 13 16 14 16 9 1 -3 -10 -1 -18 4 -18 5 0 14 8 20 18 10 15 10 14 5 -5
-8 -29 24 -35 48 -8 18 20 18 20 12 -5 -6 -23 -5 -23 8 -7 20 24 28 21 21 -8
-7 -30 13 -35 24 -6 6 17 9 18 26 5 11 -7 16 -17 11 -21 -4 -5 -10 -2 -12 5
-6 14 -23 6 -23 -11 0 -14 62 -16 72 -2 4 5 10 6 14 2 4 -3 1 -13 -6 -22 -7
-9 -10 -18 -6 -22 3 -4 13 3 22 15 19 27 39 20 24 -9 -10 -18 -6 -23 13 -20 4
0 7 -4 7 -11 0 -6 10 -3 21 8 21 19 22 19 15 -3 -9 -27 8 -31 23 -5 6 9 11 12
11 5 0 -6 -5 -15 -10 -18 -6 -4 -7 -11 -4 -17 4 -7 10 -5 16 6 5 9 13 16 19
16 5 0 4 -9 -3 -20 -16 -24 -1 -41 16 -17 7 9 17 17 21 17 4 0 2 -7 -5 -15 -7
-9 -9 -19 -5 -23 4 -4 10 -1 12 6 3 6 12 12 20 12 13 0 13 -3 3 -15 -7 -9 -10
-18 -6 -22 3 -4 13 2 20 13 8 10 18 16 22 12 4 -4 1 -14 -6 -23 -7 -9 -10 -19
-6 -23 4 -4 14 2 22 12 8 11 14 15 14 10 0 -6 -5 -15 -11 -21 -8 -8 -8 -13 0
-18 6 -3 14 1 17 9 3 9 13 16 22 16 13 0 12 -3 -3 -20 -20 -23 -14 -26 15 -8
27 17 37 2 15 -22 -10 -11 -13 -20 -8 -20 6 0 16 7 23 15 7 8 17 12 22 9 5 -4
3 -13 -5 -22 -12 -14 -13 -19 -2 -29 10 -9 17 -8 34 3 22 16 29 6 9 -14 -8 -8
-8 -12 -1 -12 6 0 16 7 23 15 7 9 15 13 18 10 3 -3 -3 -14 -13 -25 -24 -26
-11 -39 15 -15 11 10 22 16 25 13 3 -3 -1 -11 -10 -18 -8 -7 -15 -17 -15 -23
0 -5 9 -2 20 8 11 10 23 15 28 11 4 -4 -2 -14 -12 -22 -11 -7 -17 -17 -13 -21
4 -3 16 2 27 12 11 10 23 15 27 11 4 -4 -3 -15 -16 -25 -16 -12 -20 -20 -12
-25 6 -4 14 0 17 8 3 9 14 16 23 16 14 -1 14 -2 -1 -14 -10 -7 -18 -19 -18
-26 0 -9 6 -7 20 5 11 10 23 15 27 11 5 -4 0 -12 -10 -17 -9 -6 -17 -15 -17
-21 0 -6 9 -4 23 5 18 11 25 12 34 2 9 -9 8 -16 -4 -28 -9 -9 -13 -23 -9 -33
6 -16 8 -16 26 1 18 16 20 16 20 2 0 -9 -8 -20 -17 -26 -10 -5 -14 -13 -10
-17 4 -4 13 -2 19 4 7 7 19 12 28 12 13 -1 12 -3 -2 -14 -25 -18 -22 -29 5
-21 18 6 20 5 10 -6 -18 -19 -16 -34 2 -19 9 7 18 10 22 6 4 -3 -2 -13 -13
-21 -18 -14 -17 -15 11 -10 l30 5 -27 -11 c-16 -6 -28 -15 -28 -21 0 -6 8 -7
18 -3 9 4 26 10 37 12 16 4 15 2 -5 -13 -14 -9 -27 -19 -29 -20 -2 -2 3 -10
11 -18 10 -9 20 -11 29 -5 20 13 26 11 33 -8 5 -11 1 -22 -9 -29 -10 -7 -12
-15 -6 -18 5 -4 12 -2 16 4 4 6 11 7 17 4 6 -4 -2 -13 -18 -20 l-29 -14 33 6
c36 6 44 -10 10 -21 -20 -6 -20 -8 -5 -12 9 -2 17 -9 17 -14 0 -6 5 -7 11 -3
8 4 9 0 4 -15 -5 -17 -3 -20 12 -15 16 6 16 5 -1 -8 -13 -10 -15 -17 -8 -22 7
-4 12 -18 12 -30 0 -20 4 -23 28 -19 25 3 26 3 5 -6 -31 -14 -29 -23 3 -15 19
5 25 4 20 -5 -4 -6 -14 -11 -22 -11 -8 0 -14 -5 -14 -10 0 -6 10 -8 23 -5 15
4 26 0 35 -15 11 -17 10 -20 -7 -20 -11 0 -23 -5 -27 -12 -5 -8 2 -9 24 -5 19
4 32 2 32 -3 0 -6 -14 -10 -31 -10 -19 0 -28 -4 -23 -11 3 -6 17 -8 30 -5 14
4 24 2 24 -4 0 -5 -11 -10 -25 -10 -25 0 -31 -14 -16 -38 5 -9 17 -11 34 -6
16 4 27 2 27 -4 0 -6 -12 -13 -27 -15 -26 -4 -26 -4 5 -6 40 -1 43 -21 2 -21
-16 0 -30 -2 -30 -5 0 -16 27 -31 47 -27 13 2 23 0 23 -6 0 -6 -10 -12 -22
-14 -15 -2 -23 -10 -23 -23 0 -16 6 -19 28 -17 18 2 26 -1 22 -7 -3 -6 -15
-11 -26 -11 -10 0 -19 -5 -19 -10 0 -6 11 -8 25 -4 19 5 25 2 25 -10 0 -8 -6
-13 -12 -11 -20 7 -40 -10 -36 -31 2 -10 14 -21 28 -25 l25 -7 -27 -1 c-21 -1
-28 -6 -28 -21 0 -15 7 -20 25 -20 14 0 25 -5 25 -11 0 -7 -10 -9 -24 -7 -16
3 -27 0 -30 -9 -9 -22 -8 -23 19 -23 14 0 25 -5 25 -11 0 -7 -11 -8 -30 -4
-19 4 -30 3 -30 -4 0 -6 11 -11 25 -11 14 0 25 -5 25 -11 0 -6 -9 -8 -21 -4
-14 5 -25 2 -30 -6 -14 -22 -11 -29 12 -29 18 0 19 2 9 15 -14 17 -2 20 20 4
11 -8 12 -12 2 -16 -6 -2 -10 -8 -7 -12 2 -5 -8 -7 -23 -5 l-27 4 28 -12 c15
-7 27 -16 27 -20 0 -5 -9 -4 -19 2 -24 12 -31 13 -31 1 0 -5 11 -12 25 -15 14
-4 25 -11 25 -16 0 -6 -11 -8 -25 -4 -23 6 -30 -2 -26 -28 0 -5 -3 -8 -9 -8
-5 0 -10 -7 -10 -15 0 -9 6 -12 15 -9 8 4 15 1 15 -5 0 -6 5 -11 11 -11 6 0 9
7 5 15 -3 8 -1 15 4 15 14 0 13 -37 -1 -46 -6 -3 -16 -1 -22 5 -23 23 -42 12
-43 -23 -1 -27 4 -36 22 -45 13 -6 24 -15 24 -20 0 -11 -27 -4 -47 12 -8 6
-13 6 -13 0 0 -5 11 -16 25 -23 33 -18 32 -32 -1 -20 -38 15 -54 10 -19 -5 19
-8 30 -21 31 -35 1 -22 -6 -23 -48 -5 -31 13 -19 -11 15 -28 30 -17 13 -18
-25 -2 -10 4 -18 3 -18 -2 0 -5 14 -14 32 -21 25 -9 29 -15 21 -23 -9 -9 -16
-9 -27 0 -9 7 -21 11 -28 8 -8 -3 -2 -10 15 -17 15 -7 27 -17 27 -22 0 -5 -13
-2 -30 7 -25 13 -30 13 -30 1 0 -7 12 -17 26 -20 20 -5 24 -10 16 -18 -8 -8
-15 -8 -27 2 -14 11 -19 10 -36 -7 l-21 -20 31 -11 c17 -6 31 -16 31 -21 0
-15 -6 -14 -34 5 -16 10 -26 12 -31 5 -3 -6 -3 -11 2 -11 4 0 16 -7 26 -15 18
-13 18 -15 1 -44 -17 -29 -19 -30 -42 -15 -13 8 -29 13 -35 11 -7 -2 4 -12 23
-22 19 -10 29 -20 22 -22 -6 -3 -9 -9 -6 -15 3 -5 -3 -4 -15 3 -12 8 -16 16
-10 20 7 4 5 9 -5 12 -14 6 -21 -4 -17 -25 0 -5 -4 -8 -10 -8 -6 0 -1 -9 12
-19 13 -11 20 -23 16 -28 -5 -4 -15 0 -22 11 -8 11 -20 16 -30 12 -14 -5 -13
-9 6 -35 l22 -30 32 27 c17 15 36 36 42 47 41 78 75 142 83 155 36 58 110 292
114 360 2 30 12 89 22 130 26 103 26 309 0 400 -10 36 -20 74 -21 85 -1 11 -9
37 -18 59 -10 21 -17 41 -17 43 0 3 -21 46 -46 96 -25 51 -52 109 -60 130 -17
47 -114 212 -145 249 -13 15 -41 49 -61 76 -44 58 -197 185 -294 243 -38 23
-92 56 -120 75 -79 51 -234 120 -315 139 -82 20 -289 28 -353 13z"/>
<path d="M1776 2788 c9 -31 14 -35 24 -18 5 9 5 19 -2 27 -17 21 -30 15 -22
-9z"/>
<path d="M1824 2765 c-1 -14 2 -25 8 -25 5 0 6 5 3 10 -3 6 1 10 9 10 19 0 21
-26 4 -33 -9 -4 -8 -6 2 -6 8 -1 21 8 28 19 7 11 19 20 28 20 8 0 12 5 9 10
-4 7 -13 7 -26 0 -15 -9 -19 -7 -19 5 0 18 -16 20 -23 3 -4 -10 -6 -10 -6 0
-2 23 -16 12 -17 -13z"/>
<path d="M1940 2751 c0 -7 -7 -10 -17 -7 -10 3 -25 1 -33 -4 -12 -8 -10 -10
10 -10 25 -1 25 -1 3 -10 -31 -13 -29 -20 6 -20 23 0 30 5 35 26 4 15 5 29 1
32 -3 3 -5 0 -5 -7z"/>
<path d="M1963 2708 c4 -10 2 -18 -3 -18 -6 0 -10 -8 -10 -17 0 -13 3 -14 11
-6 6 6 18 9 25 6 19 -7 17 0 -8 28 -14 17 -19 19 -15 7z"/>
<path d="M911 2658 c-8 -12 -10 -35 -5 -64 l6 -44 -26 10 c-27 10 -66 -1 -66
-19 0 -11 31 -36 52 -44 15 -5 16 -11 8 -32 -24 -62 1 -88 38 -40 25 31 32 31
32 3 1 -32 26 -62 45 -55 10 5 15 20 15 52 0 40 2 45 23 45 36 0 50 20 30 42
-9 10 -22 18 -30 18 -10 0 -8 7 7 28 11 15 21 38 22 52 4 36 -35 40 -58 6 -18
-29 -34 -34 -34 -11 0 21 -21 63 -35 68 -6 3 -17 -4 -24 -15z m38 -52 c16 -65
29 -68 64 -13 29 45 41 30 13 -17 -32 -54 -32 -64 -4 -68 12 -2 23 -9 26 -16
3 -10 -5 -12 -32 -6 l-37 6 6 -43 c6 -42 6 -43 -10 -24 -9 11 -18 30 -22 43
-7 30 -17 28 -48 -10 l-26 -33 16 34 c16 33 16 35 -1 48 -10 7 -24 13 -31 13
-7 0 -13 7 -13 15 0 12 7 14 28 9 15 -4 32 -7 37 -8 6 -1 9 22 7 57 -4 68 11
75 27 13z"/>
<path d="M1968 2643 c-6 -7 -8 -16 -4 -20 3 -3 6 -1 6 5 0 7 7 12 15 12 18 0
19 -12 3 -28 -9 -9 -8 -12 5 -12 12 0 17 8 17 28 0 31 -22 39 -42 15z"/>
<path d="M2055 2651 c-6 -11 15 -61 27 -61 11 0 10 7 -2 31 -7 13 -7 19 0 19
5 0 10 5 10 10 0 13 -27 13 -35 1z"/>
<path d="M2103 2607 c2 -7 -6 -26 -19 -42 -19 -23 -26 -27 -33 -16 -6 9 -11
10 -15 2 -4 -6 -1 -14 8 -17 8 -3 12 -12 9 -20 -12 -32 14 -11 31 26 18 37 39
55 34 29 -4 -18 26 -18 42 -1 13 14 13 15 0 10 -8 -3 -21 1 -28 8 -8 9 -9 14
-2 14 6 0 8 5 5 10 -9 15 -38 12 -32 -3z"/>
<path d="M2167 2522 c-11 -23 -11 -30 -1 -40 8 -7 15 -8 19 -2 3 6 1 10 -4 10
-6 0 -11 5 -11 11 0 6 6 9 12 7 16 -6 43 20 33 30 -4 4 -10 1 -12 -5 -3 -7 -9
-13 -14 -13 -4 0 -6 7 -3 15 10 26 -4 16 -19 -13z"/>
<path d="M2095 2499 c11 -11 13 -19 7 -19 -7 0 -11 -10 -11 -22 1 -17 2 -19 6
-5 2 9 10 17 18 17 8 0 11 8 8 23 -4 18 -3 19 7 7 10 -13 11 -13 7 0 -2 8 -16
16 -31 17 -27 2 -28 1 -11 -18z"/>
<path d="M1516 2454 c-3 -8 -4 -26 -1 -40 3 -13 7 -35 10 -49 5 -22 2 -25 -23
-25 -41 0 -92 -20 -92 -36 0 -19 35 -35 81 -36 l39 0 -6 -37 c-4 -20 -11 -44
-15 -53 -16 -30 -11 -68 9 -68 13 0 28 18 46 57 l28 56 21 -36 c42 -73 98 -74
78 -1 -16 58 -15 61 27 61 39 0 82 17 82 32 0 10 -45 29 -80 33 -17 2 -23 8
-20 18 2 8 4 40 5 70 0 77 -24 80 -55 6 -15 -35 -28 -52 -37 -49 -7 3 -13 13
-13 22 0 18 -56 91 -70 91 -4 0 -11 -7 -14 -16z m64 -80 c16 -46 46 -50 71
-11 10 18 19 37 19 44 0 6 5 15 10 18 13 8 2 -75 -11 -89 -20 -22 -7 -35 39
-42 26 -3 51 -9 57 -12 18 -11 -47 -21 -72 -11 -41 15 -47 3 -28 -62 3 -10 8
-29 11 -41 l7 -23 -23 20 c-12 11 -28 32 -36 47 -22 42 -43 35 -67 -22 -20
-47 -44 -71 -33 -32 18 63 26 104 22 111 -3 5 -28 11 -55 15 -28 4 -53 11 -56
16 -7 12 30 22 78 22 39 -1 39 -1 32 31 -3 18 -9 48 -11 67 l-6 35 21 -25 c11
-14 25 -39 31 -56z"/>
<path d="M2250 2463 c0 -16 -47 -30 -65 -21 -9 6 -20 7 -23 3 -4 -4 -1 -10 6
-12 6 -3 9 -9 6 -15 -4 -6 1 -8 13 -4 21 7 93 -19 93 -33 0 -4 11 -13 25 -19
32 -15 33 1 0 18 -18 10 -22 17 -14 26 7 8 7 14 -1 19 -5 3 -10 1 -10 -6 0
-16 -13 -3 -16 16 -1 8 2 15 7 15 6 0 7 5 4 10 -7 12 -25 13 -25 3z"/>
<path d="M2114 2418 c-3 -4 -4 -8 -2 -9 36 -8 48 -7 48 5 0 15 -38 18 -46 4z"/>
<path d="M2185 2402 c-13 -9 -38 -53 -33 -58 7 -6 48 8 48 17 0 5 -7 6 -15 3
-20 -8 -19 1 1 21 17 17 16 29 -1 17z"/>
<path d="M2203 2350 c-12 -9 -19 -20 -16 -24 4 -3 14 0 22 8 9 8 22 12 28 8 8
-5 1 -13 -18 -24 -16 -9 -29 -13 -29 -8 0 6 -4 10 -10 10 -12 0 -13 -10 0 -30
8 -12 13 -11 33 9 16 14 27 19 32 12 3 -6 12 -11 18 -11 8 0 7 3 -2 9 -7 5
-11 13 -8 19 4 5 -1 16 -11 25 -15 14 -19 14 -39 -3z"/>
<path d="M2280 2345 c7 -8 20 -15 29 -15 14 0 14 -2 1 -10 -8 -5 -11 -12 -7
-16 4 -4 13 -2 20 5 9 10 7 16 -12 32 -28 23 -49 26 -31 4z"/>
<path d="M2381 2191 c-13 -11 -29 -17 -37 -14 -8 3 -14 1 -14 -5 0 -5 7 -12
15 -16 8 -3 15 -1 15 4 0 5 7 6 17 3 10 -4 14 -2 9 5 -3 6 2 15 11 21 10 5 15
12 12 15 -3 4 -16 -3 -28 -13z"/>
<path d="M2276 2173 c4 -10 7 -28 7 -40 -1 -13 3 -23 8 -23 5 0 9 8 9 18 0 29
-12 62 -22 62 -6 0 -7 -7 -2 -17z"/>
<path d="M2400 2173 c0 -5 6 -15 12 -21 10 -10 10 -15 -2 -23 -13 -9 -13 -10
0 -6 18 5 20 49 3 55 -7 2 -13 0 -13 -5z"/>
<path d="M2213 2163 c4 -3 5 -8 3 -12 -3 -4 4 -12 14 -18 15 -10 19 -9 23 6 2
10 -1 18 -7 18 -6 0 -18 3 -26 5 -8 3 -12 3 -7 1z"/>
<path d="M2183 2148 c3 -10 2 -18 -3 -18 -6 0 -10 -5 -10 -10 0 -6 11 -8 25
-4 19 5 25 2 25 -10 0 -10 9 -16 25 -16 14 0 25 5 25 11 0 6 -9 8 -20 4 -14
-5 -20 -2 -20 9 0 9 -4 16 -9 16 -5 0 -18 8 -27 18 -17 16 -18 16 -11 0z"/>
<path d="M1172 2128 c-7 -7 -12 -19 -12 -27 -1 -13 -2 -13 -11 2 -14 23 -39
22 -39 -3 0 -11 -7 -20 -15 -20 -25 0 -31 -31 -9 -47 15 -11 16 -15 5 -22 -23
-15 -5 -44 23 -39 19 4 26 0 30 -19 9 -32 24 -29 40 7 9 23 15 27 24 18 17
-17 28 19 14 43 -9 15 -8 19 8 24 27 9 25 23 -4 31 -19 4 -24 12 -23 31 2 29
-13 39 -31 21z m11 -40 c-6 -28 -4 -31 15 -26 12 4 22 2 22 -3 0 -5 -7 -9 -15
-9 -17 0 -20 -16 -5 -25 6 -3 10 -11 10 -17 0 -7 -5 -6 -15 2 -21 18 -32 5
-28 -32 3 -25 2 -29 -6 -18 -6 8 -11 23 -11 33 0 16 -2 16 -25 1 -26 -17 -34
-7 -13 14 9 9 7 16 -7 32 -10 11 -13 20 -7 20 6 0 14 -5 17 -10 12 -19 26 0
15 20 -13 24 -13 30 0 30 6 0 10 -9 10 -20 0 -30 16 -24 30 10 16 39 21 38 13
-2z"/>
<path d="M2320 2099 c10 -18 63 -33 68 -18 6 15 20 10 24 -8 2 -11 6 -14 10
-8 4 6 3 16 -1 23 -11 18 -54 24 -63 9 -5 -8 -8 -7 -8 5 0 10 -7 16 -19 15
-15 -1 -17 -5 -11 -18z"/>
<path d="M2430 2113 c0 -6 7 -19 17 -28 15 -16 17 -16 26 0 11 20 -1 35 -12
16 -7 -11 -11 -9 -20 5 -6 11 -11 14 -11 7z"/>
<path d="M2139 2105 c-1 -3 -2 -8 -3 -12 -1 -5 -5 -14 -9 -20 -14 -22 -34
-113 -26 -113 5 0 9 -7 9 -16 0 -8 4 -13 9 -10 5 3 14 -1 21 -9 11 -13 10 -14
-4 -9 -9 3 -16 2 -16 -3 0 -5 9 -9 20 -10 11 -1 20 2 20 6 0 5 -9 20 -20 34
-11 14 -20 37 -20 52 0 30 24 81 42 87 6 2 8 10 4 16 -7 12 -25 16 -27 7z"/>
<path d="M419 2068 c-1 -7 -1 -21 0 -30 2 -13 -5 -18 -23 -18 -14 0 -34 -10
-46 -22 -22 -24 -26 -38 -10 -38 6 0 10 5 10 11 0 8 5 8 15 -1 8 -7 22 -10 30
-6 12 4 15 -2 15 -29 0 -46 32 -49 50 -5 10 25 18 30 46 30 39 0 43 11 13 39
-14 13 -19 26 -14 40 7 23 -13 29 -32 10 -8 -8 -13 -5 -18 10 -7 23 -34 29
-36 9z m56 -35 c4 9 11 17 16 17 6 0 4 -10 -2 -22 -9 -17 -9 -24 5 -33 25 -19
19 -27 -13 -20 -27 6 -30 4 -33 -22 -2 -15 -7 -26 -13 -23 -5 3 -8 15 -7 28 3
19 -1 22 -27 22 -17 0 -31 5 -31 10 0 6 14 10 30 10 27 0 30 3 30 33 l0 32 20
-25 c17 -22 19 -23 25 -7z"/>
<path d="M2440 2061 c0 -6 -8 -11 -17 -11 -10 0 -24 -4 -32 -9 -12 -8 -12 -12
2 -25 9 -9 18 -12 21 -7 4 5 0 11 -6 14 -7 2 -10 7 -7 11 3 3 13 4 22 0 13 -4
14 -10 7 -24 -14 -27 -12 -32 10 -25 12 4 20 2 20 -6 0 -9 3 -9 14 0 12 10 13
8 9 -10 -5 -16 -3 -20 6 -15 7 5 10 10 7 13 -3 3 -1 14 5 25 9 17 8 18 -10 9
-20 -11 -51 -5 -51 9 0 5 6 11 13 13 10 4 10 6 0 6 -7 1 -13 6 -13 12 0 5 5 7
10 4 6 -3 10 -2 10 4 0 5 -4 13 -10 16 -5 3 -10 1 -10 -4z"/>
<path d="M2475 2050 c-3 -5 -1 -10 4 -10 6 0 11 -5 11 -11 0 -5 -4 -7 -10 -4
-5 3 -10 1 -10 -4 0 -13 10 -14 28 -3 7 5 10 16 6 25 -7 19 -20 22 -29 7z"/>
<path d="M2170 1909 c0 -22 30 -24 38 -1 2 8 -2 10 -14 5 -12 -4 -15 -3 -10 5
4 7 2 12 -3 12 -6 0 -11 -9 -11 -21z"/>
<path d="M2090 1895 c0 -8 5 -15 10 -15 6 0 9 -6 8 -12 -2 -7 3 -12 11 -10 8
2 18 -3 22 -10 7 -10 9 -10 9 0 0 6 5 12 11 12 5 0 7 -6 3 -12 -5 -9 -2 -8 9
1 10 8 20 11 24 8 3 -4 -5 -15 -18 -26 -16 -14 -19 -20 -9 -21 11 0 11 -3 2
-12 -7 -7 -12 -17 -12 -22 0 -6 7 -3 15 8 7 10 18 15 23 12 5 -3 15 5 22 19
12 22 50 32 50 12 0 -4 4 -6 10 -2 14 9 50 -18 50 -37 0 -10 5 -18 11 -18 5 0
7 6 4 13 -4 6 2 1 13 -13 12 -14 24 -21 28 -17 4 4 2 7 -4 7 -7 0 -12 4 -12
10 0 12 51 -10 66 -28 8 -12 12 -11 23 2 8 9 23 16 35 16 19 1 19 2 3 11 -9 6
-15 16 -11 22 3 7 -4 -1 -16 -16 -21 -27 -23 -27 -41 -11 -11 9 -19 24 -19 33
0 13 -2 13 -9 2 -5 -7 -11 -9 -14 -4 -3 5 -2 15 4 23 12 20 11 30 -1 30 -5 0
-10 -6 -10 -14 0 -24 -18 -28 -47 -13 -59 30 -102 46 -149 52 -27 4 -59 14
-71 21 -20 13 -23 13 -23 -1z"/>
<path d="M1508 1855 c-10 -13 -18 -31 -18 -39 0 -8 -4 -18 -10 -21 -5 -3 -10
-1 -10 5 0 7 -9 23 -19 36 l-20 25 -11 -22 c-7 -12 -9 -34 -6 -50 3 -16 1 -29
-4 -29 -6 0 -10 5 -10 12 0 7 -7 5 -17 -6 -13 -13 -15 -20 -5 -23 26 -10 11
-25 -18 -19 -23 4 -32 2 -37 -11 -7 -19 20 -42 60 -50 30 -6 33 -19 15 -58
-10 -21 -9 -29 5 -42 16 -16 19 -15 46 11 l29 28 18 -26 c24 -38 47 -30 47 16
0 21 -3 41 -6 45 -20 19 -5 33 37 33 25 0 47 4 50 9 12 19 -7 41 -46 53 l-39
11 3 65 c3 71 -7 85 -34 47z m29 -22 c-24 -85 -17 -105 36 -118 48 -12 41 -26
-12 -24 -28 2 -54 -1 -58 -4 -3 -4 1 -23 10 -42 9 -20 17 -46 17 -58 l-1 -22
-19 24 c-11 13 -20 32 -20 43 0 11 -5 18 -12 15 -7 -2 -13 -10 -12 -18 0 -8
-12 -24 -28 -37 -32 -27 -35 -18 -13 35 17 40 10 53 -32 53 -28 0 -53 10 -53
21 0 5 15 9 33 9 45 0 53 10 25 32 -13 10 -18 18 -11 18 6 0 15 -4 18 -10 3
-5 13 -10 20 -10 11 0 13 10 8 45 -3 25 -3 45 0 45 6 0 38 -55 37 -65 -1 -20
1 -25 9 -25 5 0 13 15 16 33 12 50 24 77 35 77 6 0 9 -8 7 -17z"/>
<path d="M823 1826 c-15 -7 -21 -17 -17 -28 8 -27 -21 -22 -40 7 -23 35 -50
23 -42 -19 6 -30 4 -32 -26 -34 -32 -3 -58 -17 -58 -33 0 -13 59 -41 71 -34 5
4 0 -12 -12 -34 -20 -39 -20 -71 -1 -71 10 0 37 26 56 54 12 18 14 17 35 -13
29 -40 41 -39 41 3 0 29 4 34 28 39 15 3 36 13 47 21 17 14 18 17 5 26 -8 5
-25 10 -37 10 -27 0 -27 2 -8 55 8 22 14 46 15 53 0 14 -26 14 -57 -2z m31
-28 c-3 -13 -12 -38 -20 -55 l-13 -33 42 -7 42 -6 -30 -13 c-18 -8 -34 -9 -39
-3 -18 17 -26 9 -26 -23 l0 -32 -20 22 c-28 30 -35 28 -60 -14 -12 -19 -25
-33 -27 -30 -3 3 2 17 11 30 25 39 21 64 -14 73 -46 12 -40 28 12 31 46 3 47
4 38 28 -16 42 -11 47 16 15 14 -17 30 -31 34 -31 5 0 17 16 26 35 18 39 39
48 28 13z"/>
<path d="M2213 1783 c-31 -34 -32 -37 -14 -49 10 -7 19 -25 19 -39 0 -25 -1
-25 -19 -9 -21 19 -27 6 -7 -14 9 -9 9 -12 1 -12 -7 0 -15 9 -18 20 -3 11 -10
20 -15 20 -13 0 11 -53 28 -63 9 -6 12 -18 8 -35 -6 -26 -6 -26 9 -8 8 11 16
17 16 13 1 -4 2 -11 3 -17 0 -5 4 -9 7 -7 3 1 13 -4 22 -12 10 -7 17 -9 17 -4
0 5 16 8 35 7 48 -4 44 12 -4 19 -43 5 -90 34 -91 55 0 9 7 8 25 -4 25 -16
114 -41 144 -39 8 0 16 6 19 14 3 8 0 11 -7 7 -6 -4 -38 -2 -71 5 -63 12 -88
34 -76 66 4 9 -1 22 -11 30 -17 13 -16 13 3 4 14 -7 24 -7 31 0 18 18 53 0 53
-26 0 -13 -4 -27 -10 -30 -5 -3 -10 -13 -10 -22 0 -13 3 -13 15 -3 8 7 15 18
15 26 0 26 21 25 59 -5 54 -43 75 -39 26 4 -68 60 -122 88 -155 81 -35 -7 -37
-2 -10 26 11 12 20 25 20 30 0 19 -27 5 -57 -29z"/>
<path d="M2290 1810 c13 -8 12 -10 -2 -10 -10 0 -18 -4 -18 -9 0 -5 11 -8 25
-7 14 0 25 3 25 7 0 9 -24 29 -34 29 -6 0 -4 -5 4 -10z"/>
<path d="M2495 1730 c-3 -5 -20 -10 -37 -10 -31 0 -31 0 -12 -21 16 -18 20
-18 29 -5 9 12 14 13 25 3 10 -9 12 -9 8 3 -3 8 2 20 11 27 15 11 14 12 -1 13
-9 0 -20 -4 -23 -10z"/>
<path d="M2128 1708 c-19 -19 -24 -38 -9 -38 5 0 11 9 14 20 3 11 12 20 21 20
9 0 16 4 16 8 0 15 -24 9 -42 -10z"/>
<path d="M2265 1700 c-3 -11 -3 -25 0 -30 10 -16 35 8 35 31 0 25 -27 24 -35
-1z"/>
<path d="M2140 1667 c0 -14 -5 -17 -20 -12 -24 8 -28 -13 -4 -22 22 -8 46 18
34 37 -8 13 -10 12 -10 -3z"/>
<path d="M2526 1645 c-16 -12 -17 -15 -4 -15 24 0 48 11 48 21 0 13 -23 10
-44 -6z"/>
<path d="M2437 1608 c-4 -12 -4 -24 -2 -27 3 -2 5 2 5 10 0 12 2 12 10 -1 11
-17 19 -11 25 19 5 29 -31 29 -38 -1z"/>
<path d="M2556 1622 c-7 -12 14 -29 32 -26 6 1 19 2 27 3 8 0 15 5 15 10 0 4
-12 6 -26 3 -15 -3 -29 1 -34 8 -5 7 -10 8 -14 2z"/>
<path d="M1231 1588 c-1 -12 -7 -15 -18 -11 -10 3 -3 -6 16 -21 19 -14 39 -26
44 -26 4 0 6 -4 2 -9 -3 -5 0 -13 6 -16 7 -5 9 1 7 16 -2 16 -11 25 -25 27
-15 2 -23 12 -26 30 -2 15 -5 19 -6 10z"/>
<path d="M2487 1593 c-4 -3 -7 -13 -7 -22 0 -14 2 -14 10 -1 6 10 10 11 10 3
0 -7 9 -13 21 -13 11 0 17 -4 14 -10 -3 -6 1 -7 9 -4 9 3 16 2 16 -4 0 -17 35
-6 38 11 4 20 -9 22 -26 5 -9 -9 -12 -9 -12 2 0 7 -3 11 -6 7 -3 -3 -15 3 -27
14 -22 20 -30 23 -40 12z"/>
<path d="M1890 1551 c0 -6 -9 -8 -20 -6 -24 5 -60 -42 -60 -78 0 -32 33 -73
76 -93 34 -16 64 -58 64 -88 0 -17 -29 -36 -45 -30 -6 2 -16 -5 -23 -16 -7
-12 -8 -20 -2 -20 5 0 10 5 10 10 0 22 15 8 16 -15 2 -24 -9 -34 -19 -17 -2 4
-2 1 -1 -5 2 -7 -5 -13 -16 -13 -11 0 -20 -4 -20 -9 0 -6 9 -9 20 -8 11 1 20
5 20 9 0 4 5 8 10 8 6 0 10 -7 10 -15 0 -8 -4 -15 -10 -15 -5 0 -10 -9 -10
-20 0 -11 4 -20 10 -20 5 0 7 -7 4 -15 -4 -8 -2 -15 4 -15 10 0 24 41 17 49
-3 2 -5 -1 -5 -8 0 -7 -4 -9 -10 -6 -19 12 -10 25 18 26 16 1 20 3 10 6 -10 2
-18 8 -18 13 0 5 25 -2 55 -16 31 -13 61 -24 68 -24 23 -1 48 -27 41 -44 -10
-25 -33 -19 -46 12 l-12 27 -4 -28 c-3 -23 -6 -26 -18 -16 -8 6 -14 22 -14 36
0 14 -4 22 -11 18 -5 -4 -8 -12 -6 -18 2 -6 -6 -21 -17 -34 -23 -27 -71 -31
-80 -7 -5 14 -4 15 9 4 13 -11 14 -10 9 4 -4 10 -13 15 -21 12 -8 -3 -16 -6
-18 -6 -2 0 -1 -10 2 -22 4 -20 3 -21 -9 -8 -15 18 -53 27 -43 11 3 -6 11 -11
16 -11 6 0 16 -6 24 -13 11 -12 10 -18 -10 -40 -20 -24 -54 -39 -42 -19 3 4
-11 7 -31 7 -19 0 -37 -5 -39 -12 -2 -6 -12 -9 -22 -6 -10 3 -22 0 -25 -6 -4
-5 -14 -8 -24 -5 -14 5 -15 4 -2 -5 13 -9 12 -11 -5 -11 -17 0 -17 -2 -5 -10
11 -7 19 -5 32 10 9 11 19 20 22 20 11 0 6 -19 -10 -34 -8 -9 -12 -16 -7 -16
4 0 21 16 37 36 22 28 31 33 37 23 5 -8 9 -20 9 -28 0 -11 -3 -11 -15 -1 -13
11 -14 10 -9 -4 5 -13 13 -16 31 -11 16 4 22 2 18 -5 -3 -5 0 -10 8 -10 10 0
13 8 9 25 -2 15 0 25 7 25 6 0 11 -6 11 -14 0 -7 6 -19 14 -25 16 -14 54 1 69
25 4 8 12 14 17 14 16 0 11 -27 -5 -34 -19 -7 -19 -22 1 -30 9 -4 13 -2 8 5
-4 6 0 15 7 20 21 13 35 11 21 -3 -7 -7 -12 -19 -12 -27 -1 -9 -16 -23 -35
-32 -33 -15 -36 -15 -44 0 -5 9 -13 13 -17 9 -4 -4 -2 -14 4 -21 14 -17 6 -28
-16 -20 -10 4 -13 2 -8 -5 11 -19 -3 -35 -19 -22 -9 8 -15 8 -20 0 -3 -5 0
-10 7 -10 9 0 9 -3 -2 -10 -13 -8 -12 -10 3 -10 10 0 15 -5 12 -10 -12 -20 -8
-92 6 -101 11 -7 10 -9 -3 -9 -18 0 -22 11 -18 39 1 11 -2 12 -12 5 -20 -16
-43 -11 -40 9 2 9 -2 17 -7 17 -15 0 -9 -49 6 -54 7 -3 20 -3 28 0 20 8 19 -6
-2 -22 -24 -18 -33 -17 -33 3 0 12 -3 14 -11 6 -8 -8 -6 -16 8 -30 18 -18 62
-22 97 -8 13 6 23 3 33 -10 16 -24 12 -39 -13 -44 -17 -3 -17 -2 -4 15 8 10
10 15 3 11 -6 -4 -13 -2 -15 5 -3 8 -9 8 -22 1 -17 -9 -17 -11 -1 -16 11 -5
14 -13 10 -27 -4 -12 -1 -28 7 -37 11 -14 10 -15 -12 -9 -14 4 -32 16 -42 27
-19 23 -32 25 -24 4 3 -8 0 -15 -7 -15 -7 0 1 -7 16 -15 15 -8 34 -12 42 -8 8
3 15 0 15 -6 0 -6 -7 -11 -15 -11 -8 0 -15 -4 -15 -10 0 -5 -4 -10 -10 -10 -5
0 -10 6 -10 14 0 8 -5 18 -11 22 -9 5 -10 -1 -5 -22 6 -27 5 -28 -9 -10 -8 10
-12 22 -10 27 3 4 1 10 -4 14 -6 3 -8 13 -5 23 5 13 4 14 -4 4 -5 -8 -21 -12
-35 -10 -14 1 -25 -1 -24 -6 1 -6 12 -10 25 -10 30 -1 82 -83 58 -92 -9 -3
-27 -3 -41 0 -14 4 -25 2 -25 -4 0 -5 -4 -10 -10 -10 -12 0 -9 22 5 32 6 5 3
8 -6 8 -17 0 -31 39 -34 99 -2 29 0 32 10 18 20 -27 27 -19 9 9 -13 18 -19 22
-25 12 -6 -9 -13 -6 -28 11 -11 13 -18 28 -15 32 3 5 -1 9 -10 9 -8 0 -17 6
-19 13 -4 9 -6 9 -6 0 -1 -7 -6 -13 -13 -13 -6 0 -9 3 -5 6 3 4 -1 14 -10 22
-14 15 -14 17 6 26 25 11 27 23 5 47 -9 10 -13 23 -9 28 10 17 25 13 19 -4 -5
-11 -2 -13 10 -9 16 6 16 8 0 25 -11 12 -13 19 -5 19 7 0 9 4 6 10 -3 6 -2 10
4 10 6 0 8 7 5 15 -9 23 -18 18 -36 -23 l-18 -37 5 38 c3 29 0 39 -13 43 -30
10 -61 27 -60 33 2 21 -5 28 -27 24 -23 -5 -44 -38 -31 -51 4 -3 9 4 13 16 5
23 18 29 27 14 3 -5 -4 -18 -14 -30 -11 -12 -20 -25 -20 -29 1 -4 10 3 21 16
l20 25 24 -26 c13 -14 22 -29 19 -32 -2 -3 2 -1 8 4 10 9 10 13 -2 20 -9 6
-10 10 -3 10 17 0 24 -15 17 -34 -6 -16 -34 -23 -34 -8 0 4 -9 13 -21 20 -16
10 -24 10 -35 1 -8 -6 -14 -15 -14 -20 0 -14 28 -11 34 4 3 8 11 5 24 -10 11
-13 24 -23 30 -23 14 0 62 -62 56 -72 -8 -12 -54 -10 -54 3 0 6 9 8 23 4 18
-5 16 -2 -8 14 -18 12 -24 21 -15 21 8 1 3 8 -12 16 -16 8 -28 19 -28 24 0 6
-5 10 -12 10 -9 0 -9 -3 0 -12 19 -19 14 -33 -6 -15 -21 19 -52 23 -52 6 0 -5
5 -7 10 -4 6 3 13 -1 16 -9 3 -9 10 -13 15 -10 5 3 12 -2 15 -10 3 -9 11 -16
16 -16 6 0 8 7 4 15 -3 9 0 15 10 15 9 0 12 -5 8 -11 -3 -6 0 -15 7 -20 12 -7
12 -9 0 -9 -11 0 -11 -3 -1 -15 7 -8 10 -22 6 -30 -3 -8 -1 -15 4 -15 6 0 10
7 10 16 0 8 5 12 10 9 6 -4 8 -10 5 -14 -2 -5 4 -16 15 -26 13 -12 18 -25 14
-38 -4 -14 -2 -18 7 -15 8 3 13 15 12 27 -2 18 -1 20 11 9 8 -7 12 -15 11 -17
-2 -2 9 -14 25 -28 17 -14 27 -30 23 -38 -6 -17 -33 -20 -33 -4 0 5 5 7 10 4
18 -11 10 11 -10 30 -11 10 -20 13 -20 7 0 -6 4 -14 10 -17 6 -4 4 -17 -5 -35
-19 -37 -19 -40 5 -40 20 0 26 -11 13 -24 -15 -15 -14 -56 1 -56 10 0 13 6 10
15 -4 8 -2 15 4 15 6 0 13 -6 15 -12 3 -8 6 -6 6 5 1 9 6 17 11 17 13 0 13
-27 0 -35 -6 -3 -8 -18 -5 -33 5 -26 5 -26 -6 -4 -7 12 -21 22 -33 21 -20 0
-20 -1 2 -10 32 -12 19 -31 -14 -19 -32 12 -34 12 -34 -1 0 -5 5 -7 10 -4 16
10 12 -11 -5 -25 -13 -10 -15 -9 -15 9 0 12 -6 21 -15 21 -8 0 -15 -5 -15 -11
0 -5 -4 -7 -10 -4 -5 3 -10 11 -10 16 0 6 5 7 10 4 6 -3 10 -1 10 5 0 6 5 8
10 5 6 -3 19 -4 29 0 14 4 18 13 15 30 -2 14 0 25 5 25 6 0 -5 16 -25 35 -39
39 -44 41 -44 21 0 -8 9 -18 21 -21 16 -6 18 -9 8 -22 -7 -8 -25 -21 -41 -29
-16 -8 -26 -19 -23 -24 3 -5 15 0 26 11 23 23 33 21 23 -5 -4 -9 -20 -20 -36
-23 -22 -4 -27 -10 -23 -24 4 -11 2 -19 -5 -19 -6 0 -8 -5 -4 -11 5 -8 10 -6
16 5 5 9 6 21 2 27 -4 7 -1 10 7 7 8 -3 13 -11 12 -17 -4 -15 34 -14 40 2 3 6
6 2 6 -9 1 -16 -5 -21 -21 -20 -13 1 -25 -2 -28 -6 -3 -4 -15 -9 -25 -11 -11
-1 -25 -6 -31 -10 -14 -8 -20 7 -19 48 0 30 -39 80 -55 70 -4 -3 -6 4 -3 15 3
11 9 20 14 20 5 0 9 5 9 11 0 6 -6 9 -14 6 -8 -3 -17 -1 -19 6 -2 7 -8 8 -13
3 -5 -5 -4 -11 3 -13 8 -3 10 -15 6 -35 -5 -25 -3 -30 9 -26 17 7 48 -24 48
-47 0 -9 -10 -15 -27 -16 -41 -2 -54 1 -80 18 -19 13 -21 18 -11 25 10 7 10 9
-2 5 -8 -2 -14 -13 -13 -23 1 -19 1 -19 -12 0 -10 13 -21 17 -39 12 -15 -3
-26 -11 -26 -17 0 -6 8 -6 21 2 30 15 48 -4 25 -27 -12 -12 -14 -20 -7 -27 18
-18 13 -36 -9 -34 -11 1 -20 5 -20 9 0 4 -11 8 -25 8 -14 0 -25 -4 -25 -8 0
-4 -12 -9 -27 -10 -21 -1 -24 1 -13 8 8 5 12 12 8 15 -3 3 -13 -1 -21 -10 -19
-18 -43 -20 -50 -2 -4 9 -6 9 -6 0 -1 -19 -41 -16 -41 3 0 8 5 12 10 9 6 -3
10 -2 10 4 0 5 -6 12 -12 15 -10 5 -10 7 0 12 6 3 12 12 12 19 0 8 7 11 19 8
12 -3 17 -11 14 -19 -3 -8 0 -14 6 -14 6 0 10 3 10 8 -3 18 2 35 8 28 12 -12
9 -40 -5 -55 -7 -7 -11 -16 -8 -18 9 -10 32 22 33 46 1 13 7 27 14 31 6 4 9
13 5 18 -7 12 -37 4 -48 -12 -5 -8 -10 -8 -18 0 -14 14 32 55 51 43 8 -4 19
-3 26 3 16 13 17 28 2 28 -5 0 -7 -4 -4 -10 3 -5 -1 -10 -9 -10 -9 0 -13 6
-10 14 3 7 -6 21 -20 30 -15 9 -26 12 -26 7 0 -5 6 -12 13 -14 7 -4 6 -6 -4
-6 -9 -1 -22 -8 -29 -16 -11 -13 -15 -13 -21 -3 -7 10 -9 9 -9 -4 0 -22 28
-24 36 -3 4 8 10 15 15 15 15 0 10 -19 -12 -41 -16 -16 -23 -18 -35 -8 -9 7
-14 8 -14 1 0 -6 6 -13 13 -16 9 -5 9 -7 -1 -12 -6 -3 -10 -10 -6 -15 3 -5 0
-9 -5 -9 -6 0 -11 11 -11 25 0 17 -6 25 -17 25 -17 1 -17 1 0 14 21 16 22 26
1 26 -8 0 -13 -4 -10 -9 4 -5 0 -12 -6 -15 -9 -3 -7 -9 6 -20 15 -12 17 -19 9
-27 -8 -8 -13 -5 -18 10 -3 12 -11 21 -16 21 -17 0 -9 -15 21 -40 39 -32 40
-55 3 -45 -18 4 -25 3 -18 -3 6 -6 19 -12 30 -15 11 -3 -2 -3 -30 0 -55 6
-104 21 -72 22 9 1 17 6 17 13 0 6 6 3 14 -8 8 -10 17 -17 19 -14 3 3 -1 13
-8 24 -13 17 -15 17 -37 2 -28 -20 -38 -20 -38 0 0 10 6 14 15 10 8 -3 15 -2
15 3 0 24 -73 51 -85 31 -5 -9 -1 -10 12 -6 21 7 51 -18 35 -28 -17 -10 -50 6
-72 36 -19 25 -21 35 -11 49 13 22 15 48 2 34 -18 -20 -30 -74 -18 -78 7 -2 8
-8 4 -13 -5 -5 -14 -2 -20 6 -11 15 -57 25 -57 14 0 -13 26 -30 39 -26 7 2 17
-2 22 -9 7 -11 11 -10 23 6 15 20 15 20 16 -2 0 -18 6 -23 25 -23 14 0 28 -6
31 -14 6 -16 67 -40 142 -55 87 -18 288 -13 404 9 57 10 119 22 138 25 37 6
155 52 215 83 53 26 183 159 190 194 7 29 19 36 30 18 11 -17 23 -11 18 9 -3
11 -17 21 -32 24 -32 7 -81 71 -81 108 0 38 34 84 76 104 47 22 84 59 84 85 0
11 -13 33 -30 50 -36 37 -37 43 -7 73 12 12 23 25 23 30 1 4 2 10 3 14 0 4 7
-2 15 -13 12 -16 29 -20 105 -22 143 -6 110 -39 -43 -44 -67 -2 -85 -6 -81
-16 3 -8 5 -16 5 -18 0 -3 4 -3 9 1 5 3 12 -4 16 -15 7 -20 25 -28 25 -10 0 6
-4 10 -10 10 -5 0 -10 4 -10 9 0 14 53 20 74 9 15 -8 18 -7 14 4 -4 10 3 14
28 14 19 0 29 -3 24 -6 -5 -3 7 -6 28 -6 20 -1 29 1 19 3 -17 4 -17 6 -2 30
15 23 15 26 0 43 -10 11 -15 26 -11 35 3 9 0 17 -7 19 -6 2 -41 11 -77 21 -78
21 -151 55 -144 66 3 5 -1 9 -8 9 -9 1 -8 4 3 13 27 20 57 77 52 98 -6 22 -19
25 -26 7 -3 -8 -6 -6 -6 5 -1 9 6 17 16 17 9 0 13 3 9 8 -8 7 -13 8 -41 11 -8
0 -12 7 -9 14 2 8 -4 13 -16 14 -11 1 -27 9 -36 17 -9 9 -20 13 -26 10 -7 -4
-8 -2 -4 4 4 7 2 12 -4 12 -7 0 -9 7 -6 16 3 8 2 12 -3 9 -14 -8 -3 45 12 59
7 7 20 15 30 19 15 6 25 27 12 27 -3 0 -5 -4 -5 -9z m30 -523 c0 -5 -7 -8 -15
-8 -8 0 -15 -4 -15 -9 0 -5 -3 -18 -6 -28 -6 -16 -5 -16 10 2 9 12 15 14 14 6
-2 -7 -14 -26 -28 -41 -19 -20 -28 -25 -38 -17 -11 9 -10 12 7 19 12 4 21 13
21 20 0 9 -3 10 -8 2 -4 -6 -15 -11 -24 -11 -14 0 -15 3 -7 14 6 7 17 13 24
13 8 0 12 10 11 23 -3 20 1 24 26 23 15 -1 28 -4 28 -8z m-108 -390 c15 4 19
2 13 -7 -4 -7 -15 -11 -25 -8 -9 2 -25 0 -34 -5 -10 -6 -16 -5 -16 2 0 5 7 10
15 10 8 0 15 6 16 13 0 8 2 8 5 1 3 -7 14 -9 26 -6z m-194 -166 c2 -24 -1 -32
-12 -32 -18 0 -22 16 -5 22 20 7 -2 36 -24 31 -18 -4 -19 -3 -7 6 26 19 45 8
48 -27z m-316 -179 l-5 -26 -14 24 c-12 21 -13 22 -8 3 8 -29 -23 -41 -41 -17
-17 23 -17 28 1 47 12 11 22 13 44 5 23 -8 27 -14 23 -36z m78 22 c0 -2 -3
-10 -6 -19 -8 -22 -34 -20 -34 2 0 14 -2 15 -9 2 -6 -8 -7 -18 -5 -22 3 -4 0
-8 -5 -8 -14 0 -14 23 -1 36 8 8 60 16 60 9z"/>
<path d="M1180 1539 c0 -12 -19 -33 -40 -42 -8 -4 -3 -5 12 -2 16 3 28 0 31
-8 4 -9 8 -9 15 2 5 7 15 10 21 7 6 -4 11 -3 11 3 0 15 -23 26 -28 13 -7 -23
-22 -11 -16 13 3 14 3 25 0 25 -3 0 -6 -5 -6 -11z"/>
<path d="M1302 1513 c2 -13 -4 -18 -19 -18 -13 0 -28 -6 -34 -12 -9 -9 -6 -11
12 -9 40 5 59 17 59 37 0 10 -5 19 -10 19 -6 0 -10 -8 -8 -17z"/>
<path d="M2480 1515 c0 -8 -6 -15 -12 -15 -9 0 -8 -4 2 -10 13 -9 7 -14 -12
-11 -12 2 -10 -17 2 -24 6 -4 8 -11 5 -16 -4 -5 -1 -9 6 -9 6 0 9 8 6 20 -4
18 -2 20 16 14 12 -4 25 -12 29 -18 4 -6 10 -7 13 -4 11 11 -5 28 -26 28 -20
0 -26 15 -9 25 11 7 2 35 -11 35 -5 0 -9 -7 -9 -15z"/>
<path d="M2040 1501 c0 -17 27 -30 50 -26 35 7 70 -19 63 -47 -8 -32 -43 -68
-66 -68 -10 0 -32 11 -49 25 -28 24 -78 34 -78 16 0 -23 109 -66 145 -57 18 5
25 1 30 -13 4 -13 12 -18 22 -14 11 4 14 2 9 -5 -4 -7 -2 -12 3 -12 6 0 11 -8
12 -17 0 -11 3 -13 6 -5 7 19 23 14 16 -5 -5 -15 -3 -16 7 -6 11 10 11 16 -3
31 -11 11 -17 36 -17 63 0 71 -16 112 -47 125 -37 16 -103 25 -103 15z"/>
<path d="M2424 1462 c8 -23 -28 -45 -57 -36 -19 6 -20 5 -8 -10 18 -21 27 -20
54 5 22 20 32 59 15 59 -5 0 -7 -8 -4 -18z"/>
<path d="M2571 1436 c-18 -19 -20 -26 -9 -32 19 -12 37 -13 44 -3 3 5 -4 9
-15 9 -12 0 -21 5 -21 11 0 5 5 7 10 4 6 -3 13 1 16 10 10 26 -1 27 -25 1z"/>
<path d="M2492 1435 c2 -11 -5 -28 -16 -38 -10 -9 -17 -20 -14 -23 3 -3 18 7
33 22 25 25 26 28 10 43 -16 15 -17 15 -13 -4z"/>
<path d="M2440 1417 c0 -11 -5 -14 -17 -10 -17 7 -17 6 0 -11 9 -10 15 -22 12
-27 -4 -5 -1 -9 5 -9 7 0 10 7 6 15 -3 8 2 18 10 23 14 8 14 10 0 21 -13 11
-16 11 -16 -2z"/>
<path d="M2620 1421 c0 -10 50 -25 58 -16 8 7 1 11 -30 19 -16 3 -28 2 -28 -3z"/>
<path d="M2236 1405 c11 -8 14 -15 7 -15 -7 0 -13 -5 -13 -11 0 -6 6 -9 13 -6
6 2 22 -5 35 -16 12 -11 22 -16 22 -10 0 6 -5 13 -12 15 -14 5 -3 38 12 38 6
0 9 -4 6 -9 -8 -12 3 -41 15 -41 5 0 9 7 9 16 0 8 -4 12 -10 9 -5 -3 -10 -2
-10 4 0 19 19 21 29 4 10 -17 10 -17 11 -1 0 11 -10 20 -27 24 -16 3 -34 8
-42 10 -8 3 -11 -1 -8 -11 4 -8 2 -17 -3 -20 -6 -4 -10 3 -10 14 0 15 -6 21
-22 21 -21 0 -21 0 -2 -15z"/>
<path d="M1182 1398 c-15 -15 -16 -28 -1 -28 5 0 8 4 5 9 -3 5 1 11 9 15 15 5
31 -9 18 -17 -5 -2 -3 -2 4 -1 6 2 14 -2 16 -9 3 -7 4 -2 4 11 -1 12 -4 22 -8
22 -4 0 -13 2 -21 5 -7 3 -19 0 -26 -7z"/>
<path d="M1366 1401 c-8 -12 3 -41 15 -41 13 0 11 18 -3 23 -8 4 -7 6 4 6 9 1
18 -5 21 -11 2 -7 8 -10 12 -5 5 4 0 14 -11 22 -22 17 -31 18 -38 6z"/>
<path d="M1574 1395 c-4 -8 -10 -13 -14 -10 -5 3 -11 1 -15 -5 -3 -5 -1 -10 5
-10 18 0 50 20 50 30 0 16 -20 12 -26 -5z"/>
<path d="M1640 1403 c0 -5 5 -14 11 -20 7 -7 6 -14 -4 -24 -12 -13 -11 -17 10
-32 22 -17 23 -17 23 2 0 11 5 23 10 26 6 4 10 -5 10 -20 0 -23 3 -25 28 -19
24 7 26 6 13 -9 -7 -10 -20 -17 -28 -17 -10 0 -12 -6 -8 -20 4 -11 2 -20 -4
-20 -6 0 -11 5 -11 10 0 17 -28 11 -33 -7 -3 -13 -5 -11 -6 6 -1 19 -5 23 -26
19 -33 -7 -32 10 0 18 25 6 25 7 9 25 -13 15 -14 22 -5 33 8 9 9 20 4 28 -6
10 -13 8 -30 -9 -12 -13 -18 -23 -13 -23 6 0 10 -7 10 -15 0 -8 5 -15 11 -15
5 0 7 -5 4 -10 -4 -6 -12 -10 -18 -9 -24 3 -37 -1 -37 -12 0 -8 4 -8 14 0 12
10 13 8 9 -8 -4 -16 -1 -21 15 -21 12 0 24 -5 28 -12 5 -7 3 -8 -6 -3 -8 5
-11 3 -8 -6 5 -16 25 -19 54 -6 14 6 29 5 43 -2 19 -11 21 -9 21 16 0 14 9 37
21 49 25 27 16 48 -18 41 -20 -4 -24 -1 -20 13 11 44 -25 49 -44 6 -8 -19 -9
-18 -4 5 3 17 -1 31 -10 39 -8 7 -15 8 -15 3z"/>
<path d="M2536 1383 c6 -28 33 -57 43 -48 2 3 -4 11 -14 19 -10 7 -16 17 -13
22 3 5 -1 15 -8 22 -13 12 -14 9 -8 -15z"/>
<path d="M1104 1378 c2 -13 9 -22 15 -20 6 1 11 -5 11 -13 0 -8 8 -15 18 -15
13 0 14 2 3 9 -10 6 -11 13 -2 29 14 26 14 43 0 20 -12 -22 -29 -23 -29 -3 0
8 -4 15 -10 15 -5 0 -8 -10 -6 -22z"/>
<path d="M1054 1310 c2 -17 10 -26 25 -28 11 -2 21 2 21 8 0 7 -6 10 -13 7 -8
-3 -14 3 -14 14 -2 23 22 26 31 4 3 -8 15 -15 27 -15 21 0 21 -1 5 -19 -10
-11 -24 -17 -31 -15 -7 3 -15 2 -18 -3 -10 -16 38 -9 50 6 6 9 15 12 20 7 4
-5 2 -11 -4 -13 -7 -3 -13 -18 -13 -33 0 -16 -4 -32 -10 -35 -5 -3 -10 -1 -10
6 0 7 -20 -8 -44 -35 -24 -26 -47 -42 -50 -37 -4 6 -15 2 -27 -10 -11 -11 -19
-23 -16 -25 7 -7 37 7 37 18 0 5 4 6 10 3 5 -3 20 3 32 14 23 22 44 28 33 11
-3 -5 -1 -10 4 -10 6 0 11 5 11 11 0 5 5 7 11 3 8 -4 7 -9 -2 -15 -7 -4 -10
-11 -7 -14 12 -12 28 6 28 30 0 18 -5 23 -20 20 -11 -2 -20 0 -20 5 0 5 10 10
22 12 14 2 25 13 29 28 4 15 7 18 8 8 1 -14 7 -16 34 -12 31 6 31 6 12 -10
-14 -12 -16 -19 -7 -22 6 -3 12 -13 12 -22 0 -12 -3 -13 -12 -4 -18 18 -38 14
-38 -8 0 -11 -6 -23 -14 -26 -28 -11 -45 -89 -23 -105 4 -3 9 -16 10 -27 1
-12 7 -22 14 -22 17 0 17 20 1 20 -8 1 -6 6 5 14 23 18 22 29 -3 21 -18 -6
-20 -2 -20 34 0 35 3 41 26 47 16 4 23 12 20 20 -3 8 1 14 10 14 8 0 12 -4 9
-10 -3 -5 0 -10 9 -10 8 0 20 -2 28 -3 7 -2 10 -2 6 0 -5 3 -8 15 -8 28 0 13
-5 27 -10 30 -6 4 -8 11 -4 16 3 5 8 7 12 5 4 -2 12 2 18 8 8 9 8 17 -1 29
-10 14 -18 16 -40 7 -23 -9 -26 -8 -21 6 3 8 6 18 6 20 0 2 5 4 11 4 5 0 7 -6
3 -12 -5 -10 -4 -10 6 -1 20 18 3 29 -22 14 -11 -7 -17 -8 -13 -2 3 6 -1 19
-11 28 -12 13 -13 18 -4 21 7 3 16 -1 20 -8 7 -11 12 -10 24 3 27 26 20 37
-16 26 -64 -19 -78 -20 -78 -4 0 11 -9 15 -29 13 -25 -2 -29 -6 -27 -28z"/>
<path d="M1515 1304 c2 -19 6 -38 8 -41 13 -12 27 11 26 40 l-2 32 -7 -35 c-7
-35 -14 -25 -12 18 1 12 -3 22 -8 22 -5 0 -7 -16 -5 -36z"/>
<path d="M2294 1308 c1 -25 16 -42 16 -18 0 5 8 6 18 3 15 -6 15 -5 3 10 -7 9
-17 15 -21 12 -5 -3 -10 1 -13 7 -2 7 -4 1 -3 -14z"/>
<path d="M2030 1299 c0 -13 5 -18 13 -14 6 4 3 -1 -7 -9 -11 -9 -16 -19 -13
-23 4 -4 12 -2 18 4 13 13 50 5 48 -11 -3 -26 2 -38 15 -33 7 3 19 0 25 -6 6
-6 14 -8 17 -4 9 9 -24 39 -36 32 -5 -3 -10 1 -10 10 0 10 5 13 13 9 6 -4 3 2
-7 14 -19 22 -43 31 -31 12 3 -5 1 -10 -4 -10 -6 0 -11 9 -11 19 0 10 -7 21
-15 25 -10 4 -15 -1 -15 -15z"/>
<path d="M540 1290 c0 -5 4 -10 10 -10 5 0 7 -7 4 -15 -4 -8 -1 -15 5 -15 6 0
11 11 11 25 0 16 -6 25 -15 25 -8 0 -15 -4 -15 -10z"/>
<path d="M1372 1252 c1 -26 5 -30 27 -28 14 1 34 7 44 12 16 9 16 12 4 22 -20
17 -52 5 -36 -14 9 -11 8 -14 -5 -14 -9 0 -17 5 -17 10 -1 6 -2 14 -3 19 -3
25 -15 19 -14 -7z"/>
<path d="M2580 1271 c0 -5 7 -14 15 -21 8 -7 15 -9 15 -4 0 4 5 3 12 -4 9 -9
14 -7 24 6 17 21 18 40 2 24 -15 -15 -32 -16 -23 -2 3 6 2 10 -4 10 -5 0 -12
-6 -14 -12 -4 -10 -6 -10 -6 0 -1 13 -21 17 -21 3z"/>
<path d="M591 1252 c-6 -11 -8 -29 -5 -39 5 -16 4 -16 -10 1 -9 11 -19 16 -23
12 -4 -4 -1 -11 7 -17 13 -8 12 -11 -5 -21 -11 -7 -22 -11 -23 -9 -2 1 -10 -6
-19 -16 -8 -10 -12 -12 -8 -5 7 13 -19 45 -29 35 -3 -4 -6 -1 -6 5 0 7 5 12
10 12 6 0 10 5 10 11 0 6 -7 8 -17 5 -9 -4 -20 -1 -24 5 -5 9 -11 8 -23 -3 -9
-9 -21 -18 -28 -21 -7 -2 -10 -8 -6 -12 5 -5 17 0 27 9 11 10 25 15 30 11 16
-9 13 -25 -2 -19 -8 3 -20 -2 -27 -11 -8 -10 -9 -15 -1 -15 6 0 11 5 11 10 0
6 5 10 10 10 6 0 10 -16 10 -35 0 -29 -4 -35 -22 -36 l-23 0 23 -9 c35 -15 48
-4 44 35 -5 43 4 45 20 5 l13 -29 39 35 c48 43 61 36 18 -9 -18 -18 -32 -36
-32 -39 0 -4 17 -12 38 -18 57 -19 64 -33 15 -28 -50 4 -53 -4 -22 -57 12 -20
19 -38 17 -40 -6 -6 -68 55 -68 66 0 22 -18 6 -34 -31 -10 -22 -22 -40 -27
-40 -12 0 -12 4 6 47 17 40 14 63 -9 63 -24 0 -46 30 -42 56 3 13 1 24 -3 24
-10 0 -31 -45 -31 -65 0 -8 -6 -15 -14 -15 -7 0 -19 -7 -26 -15 -15 -18 -13
-18 36 -2 42 14 84 12 84 -4 0 -6 -5 -7 -12 -3 -8 5 -9 2 -5 -10 9 -22 -2 -68
-14 -60 -17 10 -9 -5 16 -30 17 -17 25 -20 25 -11 0 8 5 15 10 15 6 0 10 8 11
18 0 11 2 12 6 4 4 -10 8 -9 18 4 11 16 15 15 51 -13 43 -34 94 -49 94 -27 0
17 -17 27 -22 12 -3 -8 -9 -8 -24 0 -16 10 -17 11 -2 12 12 0 15 5 11 16 -4
11 -8 12 -13 4 -11 -18 -18 20 -9 50 4 14 7 20 8 14 1 -6 8 -11 17 -11 13 0
15 7 10 31 -11 60 -11 71 2 72 6 1 17 2 22 3 19 2 10 20 -10 18 -11 -1 -20 -6
-20 -12 0 -5 -4 -3 -10 5 -5 9 -5 17 0 20 5 3 3 18 -6 34 -17 34 -10 48 11 20
18 -24 19 -7 1 25 -13 24 -14 24 -25 3z m3 -137 c11 -8 17 -17 14 -20 -8 -9
-58 17 -52 26 7 12 16 11 38 -6z"/>
<path d="M2452 1255 c-34 -18 -38 -26 -11 -21 13 2 26 5 29 6 3 2 8 2 13 1 4
0 7 3 7 8 0 16 -14 18 -38 6z"/>
<path d="M2503 1253 c-4 -10 -15 -27 -25 -37 -9 -10 -15 -23 -12 -27 6 -11
-14 -21 -27 -13 -8 5 -8 9 1 14 8 5 5 9 -9 13 -28 7 -28 -24 -1 -41 17 -10 23
-10 35 2 8 8 15 21 15 28 0 8 9 20 20 28 11 8 20 20 20 28 0 7 5 10 12 6 7 -4
8 -3 4 4 -10 17 -26 15 -33 -5z"/>
<path d="M1065 1246 c3 -11 0 -23 -7 -28 -10 -6 -9 -8 4 -8 9 0 20 5 23 10 4
6 15 8 26 5 10 -4 19 -2 19 3 0 6 -11 9 -25 7 -15 -1 -30 4 -36 14 -9 14 -10
13 -4 -3z"/>
<path d="M1544 1249 c-3 -6 -15 -8 -26 -6 -17 5 -19 2 -16 -18 4 -16 1 -22 -9
-18 -7 3 -13 0 -13 -7 0 -7 8 -10 20 -7 12 3 23 -1 29 -10 7 -13 9 -13 14 1 4
10 1 16 -8 16 -16 0 -20 12 -8 23 3 4 12 2 20 -4 9 -9 13 -8 13 0 0 6 -5 11
-12 11 -6 0 -3 7 8 15 10 8 14 15 7 15 -6 0 -15 -5 -19 -11z"/>
<path d="M271 1218 c0 -9 -7 -18 -13 -21 -8 -2 -9 -8 -4 -13 5 -5 11 -4 13 4
3 8 11 5 24 -10 10 -13 18 -18 19 -11 0 6 -5 15 -11 19 -8 4 -7 9 2 16 11 8
10 9 -3 4 -10 -3 -18 1 -21 12 -4 16 -5 16 -6 0z"/>
<path d="M860 1221 c0 -5 6 -12 13 -14 9 -4 8 -8 -3 -17 -11 -9 -12 -13 -2
-17 6 -2 12 -11 12 -19 0 -9 4 -13 9 -10 11 7 53 -29 44 -38 -3 -3 -1 -6 5 -6
7 0 12 3 12 8 -1 10 -40 59 -40 49 0 -5 -7 -1 -16 8 -12 12 -14 19 -6 27 8 8
7 15 -3 24 -16 16 -25 18 -25 5z"/>
<path d="M2610 1225 c0 -32 65 -59 81 -34 15 24 10 27 -28 24 -21 -1 -41 2
-45 9 -4 6 -8 7 -8 1z"/>
<path d="M1602 1198 c-9 -3 -12 -7 -7 -8 6 -1 15 -3 20 -5 6 -1 16 -3 23 -3 7
-1 10 -6 7 -12 -3 -5 -1 -10 5 -10 7 0 10 7 6 15 -3 8 2 19 11 24 13 7 9 8
-15 8 -18 -1 -40 -5 -50 -9z"/>
<path d="M2150 1193 c-10 -12 -11 -18 -2 -21 7 -2 12 -10 12 -18 0 -8 4 -14 9
-14 5 0 17 -7 25 -16 15 -14 16 -14 16 0 0 9 -7 16 -15 16 -8 0 -15 5 -15 11
0 6 7 8 16 5 9 -3 18 -6 20 -6 2 0 4 -7 4 -15 0 -9 6 -12 15 -9 18 7 20 -7 3
-24 -8 -8 -8 -15 1 -26 10 -11 10 -20 1 -36 -9 -16 -9 -25 -1 -33 17 -17 23
-3 27 62 4 56 3 61 -25 80 -16 12 -32 21 -36 21 -4 0 -14 9 -23 20 -16 18 -18
18 -32 3z"/>
<path d="M2591 1193 c1 -5 1 -15 0 -22 -1 -12 -4 -12 -13 -3 -19 19 -29 14
-16 -7 9 -15 15 -17 30 -8 19 12 25 47 8 47 -5 0 -9 -3 -9 -7z"/>
<path d="M1250 1170 c0 -5 5 -10 11 -10 6 0 8 -9 4 -22 -3 -13 -3 -18 2 -12 4
6 17 16 28 22 19 11 19 11 -2 12 -13 0 -23 5 -23 10 0 6 -4 10 -10 10 -5 0
-10 -4 -10 -10z"/>
<path d="M142 1158 c-15 -15 -16 -38 -1 -38 8 0 8 -5 -1 -15 -9 -10 -9 -15 -1
-15 6 0 11 4 11 9 0 5 11 12 25 15 24 6 36 26 15 26 -5 0 -10 -4 -10 -8 0 -5
-7 -9 -15 -9 -8 0 -15 6 -15 14 0 7 7 13 16 13 8 0 12 5 9 10 -8 13 -18 13
-33 -2z"/>
<path d="M1493 1151 c-9 -15 -9 -21 -1 -23 9 -3 9 -6 1 -11 -7 -5 -17 1 -23
13 -6 11 -15 20 -21 20 -6 0 -4 -7 4 -15 9 -8 17 -19 19 -25 1 -5 13 -7 26 -4
18 5 20 9 11 21 -9 10 -9 17 -1 25 9 9 12 8 12 -4 0 -20 16 -32 24 -19 6 9
-19 41 -32 41 -4 0 -13 -9 -19 -19z"/>
<path d="M300 1132 c0 -10 -5 -23 -12 -30 -7 -7 -8 -12 -2 -12 16 0 34 22 34
42 0 10 -4 18 -10 18 -5 0 -10 -8 -10 -18z"/>
<path d="M670 1139 c0 -6 5 -7 10 -4 6 3 10 1 10 -5 0 -6 7 -19 16 -28 15 -14
17 -14 26 1 8 16 11 16 24 2 9 -8 21 -12 27 -8 6 4 1 10 -14 15 -19 7 -21 11
-9 18 8 5 11 12 7 16 -4 4 -16 -3 -26 -15 -20 -23 -44 -21 -35 2 2 7 -4 13
-16 14 -11 1 -20 -3 -20 -8z"/>
<path d="M1694 1136 c-10 -8 -15 -18 -11 -23 5 -4 14 -1 20 8 7 9 18 14 26 11
8 -3 11 0 7 7 -9 15 -18 14 -42 -3z"/>
<path d="M1795 1133 c-5 -12 -9 -14 -12 -5 -5 13 -23 7 -23 -9 0 -14 30 -11
46 5 16 17 18 26 5 26 -5 0 -12 -8 -16 -17z"/>
<path d="M2530 1129 c0 -5 4 -8 9 -4 5 3 12 1 16 -5 3 -5 1 -10 -4 -10 -6 0
-11 -5 -11 -12 0 -9 3 -9 12 0 15 15 32 16 23 2 -7 -12 -3 -12 20 -4 13 5 10
10 -15 25 -34 21 -50 24 -50 8z"/>
<path d="M2620 1131 c0 -5 6 -11 12 -13 9 -3 8 -9 -5 -22 -22 -22 -23 -58 -2
-50 8 4 15 10 15 16 0 5 -4 6 -10 3 -5 -3 -10 -1 -10 5 0 7 9 14 20 17 24 6
25 16 4 37 -18 18 -24 20 -24 7z"/>
<path d="M826 1122 c-3 -5 11 -15 30 -24 18 -9 34 -12 34 -7 0 5 -5 9 -11 9
-5 0 -7 6 -3 13 4 6 4 9 -1 5 -4 -4 -16 -3 -26 2 -10 6 -20 6 -23 2z"/>
<path d="M2392 1115 c-9 -11 -10 -15 -1 -15 7 0 5 -8 -6 -20 -10 -11 -13 -20
-7 -20 6 0 12 6 15 13 3 8 7 6 12 -7 5 -11 3 -21 -4 -26 -9 -5 -8 -9 4 -14 9
-3 13 -10 10 -16 -11 -18 6 -50 26 -50 11 0 24 -10 29 -22 9 -23 9 -23 9 -1 1
15 -8 24 -28 31 -25 9 -29 15 -25 36 3 16 0 26 -7 26 -8 0 -7 5 2 16 8 10 9
18 3 22 -15 10 -25 42 -14 42 6 0 10 5 10 10 0 14 -13 12 -28 -5z"/>
<path d="M2438 1119 c-22 -12 -24 -31 -2 -22 12 4 14 0 9 -23 -3 -16 -2 -23 1
-16 3 6 11 9 17 5 18 -11 37 -12 37 -2 0 5 -9 9 -21 9 -15 0 -19 5 -15 15 3 8
1 15 -4 15 -5 0 -7 7 -4 15 7 17 5 18 -18 4z"/>
<path d="M1730 1110 c0 -5 -7 -10 -15 -10 -22 0 -18 -17 4 -23 14 -3 18 -1 14
9 -3 8 0 14 6 14 6 0 11 5 11 10 0 6 -4 10 -10 10 -5 0 -10 -4 -10 -10z"/>
<path d="M190 1104 c0 -4 8 -13 18 -21 16 -14 16 -14 0 -9 -10 3 -18 1 -18 -4
0 -16 15 -19 33 -5 16 12 16 14 -8 29 -14 9 -25 13 -25 10z"/>
<path d="M1330 1100 c0 -5 -9 -10 -19 -10 -11 0 -23 -5 -27 -12 -7 -11 10 -9
49 7 13 6 16 3 11 -9 -3 -9 -2 -16 4 -16 16 0 24 33 10 42 -18 11 -28 10 -28
-2z"/>
<path d="M103 1082 c10 -10 17 -24 17 -30 0 -7 5 -12 10 -12 16 0 11 32 -7 46
-26 20 -39 17 -20 -4z"/>
<path d="M640 1082 c0 -6 6 -13 13 -15 9 -4 8 -8 -3 -16 -8 -6 -10 -11 -5 -11
6 0 21 12 34 25 13 14 18 25 13 25 -6 0 -14 -5 -17 -10 -5 -8 -11 -7 -21 1 -9
7 -14 8 -14 1z"/>
<path d="M1030 1079 c0 -6 -9 -9 -20 -6 -11 3 -20 0 -20 -5 0 -6 12 -8 30 -4
34 6 39 -3 11 -24 -11 -7 -18 -17 -15 -22 5 -8 -11 -12 -30 -9 -5 1 -13 -4
-17 -11 -6 -9 -10 -8 -15 5 -3 9 -10 17 -15 17 -13 0 -11 -12 7 -35 15 -19 15
-19 26 -1 7 12 13 15 17 7 4 -6 15 -9 24 -5 9 3 15 10 12 14 -2 4 4 18 15 30
16 19 22 21 35 10 12 -10 15 -10 15 4 0 10 -4 14 -10 11 -5 -3 -15 3 -22 15
-14 22 -28 26 -28 9z"/>
<path d="M770 1064 c0 -14 2 -15 16 -3 15 12 16 11 9 -11 -7 -24 -7 -24 8 -5
11 15 12 22 4 27 -20 13 -37 9 -37 -8z"/>
<path d="M840 1070 c-8 -5 -11 -12 -7 -17 5 -4 12 -1 16 6 6 10 10 10 16 1 4
-6 13 -9 20 -6 8 3 16 -3 18 -12 3 -9 5 -4 6 12 1 23 -1 26 -13 17 -10 -8 -16
-9 -21 -1 -8 12 -16 13 -35 0z"/>
<path d="M1666 1064 c-4 -10 -2 -14 6 -11 7 2 21 0 31 -5 11 -6 24 -5 35 2 12
8 13 10 2 7 -9 -3 -24 1 -35 9 -24 18 -31 18 -39 -2z"/>
<path d="M2554 1063 c-11 -26 -13 -53 -3 -53 5 0 9 4 9 9 0 5 9 12 19 16 13 4
17 12 14 25 -7 25 -28 26 -39 3z"/>
<path d="M1310 1064 c0 -18 18 -36 31 -32 8 3 22 -8 31 -24 10 -15 25 -28 33
-28 9 0 13 5 10 10 -4 6 -10 8 -15 5 -4 -2 -13 9 -20 26 -7 16 -18 28 -24 26
-6 -3 -19 2 -28 11 -10 8 -18 11 -18 6z"/>
<path d="M1492 1023 c-22 -27 -31 -33 -32 -20 0 9 -4 17 -9 17 -5 0 -7 -9 -4
-20 7 -26 14 -25 49 5 16 14 25 25 19 25 -5 0 -3 4 5 10 8 5 12 12 8 15 -3 3
-19 -11 -36 -32z"/>
<path d="M1673 1010 c-5 -29 -7 -31 -14 -15 -7 18 -8 18 -8 -3 -1 -30 23 -24
27 6 2 14 8 19 20 16 10 -4 13 -2 7 3 -5 4 -13 12 -17 17 -5 5 -11 -6 -15 -24z"/>
<path d="M244 1023 c-25 -5 -41 -63 -18 -63 8 0 11 9 8 26 -3 14 -1 23 4 20 5
-3 18 1 28 9 19 15 16 16 -22 8z"/>
<path d="M870 1020 c0 -5 5 -10 11 -10 6 0 9 -7 5 -15 -6 -17 2 -19 24 -5 13
8 12 11 -5 24 -23 18 -35 20 -35 6z"/>
<path d="M325 1000 c-3 -11 -11 -20 -16 -20 -6 0 -8 -4 -4 -9 5 -8 55 32 55
44 0 15 -30 2 -35 -15z"/>
<path d="M758 1008 c-27 -9 -39 -28 -18 -28 6 0 10 5 10 10 0 6 4 10 10 10 5
0 6 -8 3 -17 -7 -17 -6 -17 11 0 24 24 16 36 -16 25z"/>
<path d="M1545 1005 c-15 -13 -16 -15 -3 -11 17 5 33 -19 18 -29 -4 -3 -10 -1
-12 4 -1 4 -12 5 -23 0 -17 -6 -17 -8 -2 -8 18 -1 25 -31 6 -31 -5 0 -8 4 -4
9 3 5 -4 12 -15 16 -11 4 -18 11 -15 16 11 16 -11 10 -32 -10 -12 -11 -24 -17
-27 -14 -3 4 -6 -2 -6 -12 0 -17 1 -17 21 1 16 14 21 15 17 4 -3 -8 -1 -25 3
-38 6 -14 5 -21 0 -17 -5 3 -13 0 -16 -6 -5 -7 1 -9 16 -7 20 3 24 8 21 36 -4
35 13 44 23 12 8 -25 22 -26 30 -1 6 21 33 47 40 39 3 -3 -4 -17 -16 -32 -18
-23 -20 -30 -8 -37 8 -5 24 -8 37 -6 12 2 22 0 22 -4 0 -9 -21 -13 -52 -10
-19 2 -24 -14 -8 -24 6 -4 7 -23 4 -46 -5 -27 -3 -39 5 -39 8 0 10 8 6 21 -5
15 -4 19 4 15 6 -4 11 -2 11 5 0 9 4 9 15 -1 15 -12 35 -6 35 12 0 5 -6 8 -14
5 -8 -3 -22 4 -32 16 -11 12 -15 19 -10 15 5 -4 15 -3 23 3 7 6 13 8 13 5 0
-4 6 -1 13 6 16 16 18 51 3 45 -6 -2 -20 5 -31 15 -13 13 -15 18 -5 15 8 -2
12 -2 8 0 -5 3 -8 13 -8 24 0 10 -4 19 -8 19 -5 0 -13 9 -18 20 -9 19 -10 20
-29 5z"/>
<path d="M2481 1003 c0 -13 3 -23 8 -23 5 0 16 -3 25 -6 11 -4 16 0 16 12 0
16 -2 17 -10 4 -7 -11 -10 -11 -10 -2 0 7 -4 11 -9 7 -5 -3 -12 3 -14 12 -4
14 -5 13 -6 -4z"/>
<path d="M794 948 c8 -13 15 -27 15 -33 0 -5 5 -11 11 -13 9 -3 9 1 1 16 -9
17 -8 21 7 25 13 4 11 5 -5 6 -13 0 -23 6 -23 11 0 6 -5 10 -10 10 -6 0 -4
-10 4 -22z"/>
<path d="M845 960 c3 -5 13 -10 22 -10 11 0 14 -8 11 -29 -2 -17 -1 -28 3 -26
10 7 20 -58 10 -68 -11 -11 -45 38 -36 53 3 5 2 10 -4 10 -6 0 -10 -16 -9 -35
1 -23 4 -31 9 -23 7 10 9 8 9 -4 0 -21 -11 -23 -28 -6 -9 9 -12 8 -12 -5 0 -9
-5 -17 -11 -17 -5 0 -7 5 -4 10 3 6 1 10 -5 10 -7 0 -10 -6 -7 -14 3 -8 -1
-20 -9 -26 -18 -16 -18 -30 1 -30 9 0 12 6 9 15 -5 11 -2 13 10 9 13 -5 13
-10 4 -27 -8 -16 -8 -22 1 -25 9 -3 9 -8 -2 -21 -8 -9 -17 -26 -20 -38 -4 -19
-1 -23 16 -23 16 0 18 3 9 9 -17 10 -12 29 12 54 18 18 18 21 3 26 -11 4 -13
11 -8 20 6 9 11 10 15 3 4 -6 14 -9 24 -6 14 5 15 4 2 -5 -8 -5 -11 -14 -6
-18 5 -4 11 -2 13 5 6 15 29 16 39 0 4 -7 3 -8 -4 -4 -8 5 -10 2 -6 -8 3 -9
10 -13 15 -10 5 3 9 1 9 -5 0 -5 3 -17 7 -27 4 -12 3 -15 -5 -10 -7 4 -12 2
-12 -3 0 -6 10 -11 23 -11 27 -1 78 -41 60 -47 -20 -7 -15 -23 7 -23 14 0 18
5 13 18 -3 9 -11 22 -17 27 -6 6 -18 19 -26 29 -13 18 -13 19 1 14 20 -8 46 6
30 16 -6 4 -11 2 -11 -4 0 -6 -4 -8 -10 -5 -16 10 -12 25 8 26 10 0 12 3 5 6
-7 2 -13 12 -13 21 0 11 3 13 8 6 4 -6 15 -13 24 -17 11 -4 15 -12 12 -22 -3
-8 -1 -15 5 -15 8 0 8 -4 -1 -14 -7 -8 -17 -11 -22 -9 -5 3 -7 0 -4 -7 8 -24
23 -21 36 7 6 15 12 33 12 41 0 7 5 10 11 7 6 -4 9 2 8 17 -4 49 0 61 16 48
12 -10 15 -10 15 4 0 18 21 21 37 5 7 -7 12 -6 16 5 5 13 -3 16 -51 16 -31 0
-67 -3 -80 -6 l-23 -7 27 -28 c31 -33 28 -35 -22 -14 -39 16 -45 11 -48 -40
-1 -29 -16 -35 -16 -7 0 24 -36 66 -49 58 -13 -8 -82 25 -75 36 3 4 20 8 39 8
18 0 40 3 49 6 18 7 22 54 5 71 -6 6 -9 21 -7 34 5 25 7 23 28 -35 l11 -30 15
30 c27 53 43 59 24 10 -13 -34 5 -44 33 -18 12 11 33 25 47 32 21 11 19 7 -12
-28 -21 -23 -38 -46 -38 -51 0 -6 29 -7 71 -4 55 5 73 3 80 -8 7 -12 10 -12
21 0 10 10 10 15 1 18 -7 2 -9 11 -6 19 3 8 0 14 -6 14 -6 0 -11 -4 -11 -10 0
-5 -7 -10 -15 -10 -8 0 -15 5 -15 10 0 6 -4 10 -10 10 -5 0 -10 -7 -10 -15 0
-8 -5 -15 -11 -15 -6 0 -9 7 -5 15 3 9 0 15 -10 15 -8 0 -12 -4 -9 -10 3 -5 1
-10 -4 -10 -6 0 -11 7 -11 15 0 8 4 15 9 15 16 0 21 44 5 53 -8 4 -12 12 -9
17 3 5 1 11 -5 15 -6 3 -10 -4 -10 -17 0 -13 -12 -31 -25 -41 -14 -10 -25 -14
-25 -8 0 5 5 11 12 13 16 6 1 28 -25 37 -15 6 -25 3 -34 -8 -9 -13 -14 -14
-25 -3 -11 11 -10 14 2 22 12 7 11 10 -5 16 -11 5 -20 3 -23 -4 -2 -8 -11 -8
-28 -1 -32 12 -37 11 -29 -1z"/>
<path d="M2560 960 c0 -7 7 -10 18 -6 16 6 16 5 0 -8 -26 -19 -22 -27 7 -14
14 6 24 16 22 22 -5 15 -47 20 -47 6z"/>
<path d="M341 951 c-10 -6 -10 -13 -2 -28 5 -11 7 -23 4 -27 -3 -3 1 -6 10 -6
21 0 22 14 2 33 -18 19 -7 31 13 14 12 -10 14 -9 11 2 -7 19 -20 23 -38 12z"/>
<path d="M699 956 c0 0 -2 -9 -4 -18 -3 -15 2 -17 22 -12 18 5 24 3 19 -5 -4
-6 -3 -11 3 -11 21 0 6 39 -16 43 -13 2 -23 4 -24 3z"/>
<path d="M2033 946 c3 -8 1 -17 -6 -19 -7 -2 -8 -8 -4 -13 4 -5 12 -2 16 5 6
9 11 10 15 2 4 -6 13 -11 19 -11 7 1 2 9 -10 19 -12 10 -19 21 -16 25 4 3 1 6
-6 6 -7 0 -11 -6 -8 -14z"/>
<path d="M1200 939 c0 -5 -4 -7 -10 -4 -5 3 -10 1 -10 -4 0 -14 17 -14 25 -1
5 8 11 7 21 -1 11 -9 14 -8 14 5 0 9 -8 16 -20 16 -11 0 -20 -5 -20 -11z"/>
<path d="M551 913 c-5 -10 -12 -17 -15 -15 -16 6 -26 0 -26 -15 0 -9 -3 -13
-7 -10 -3 4 -11 2 -18 -3 -8 -7 -12 -5 -12 5 0 8 6 15 14 15 7 0 13 4 13 9 0
5 -9 7 -20 4 -21 -6 -26 -28 -11 -52 8 -12 12 -12 26 2 19 20 32 22 37 5 3 -8
9 -8 24 1 18 11 18 11 0 9 -10 -2 -21 3 -24 11 -3 8 0 11 6 7 6 -3 18 4 26 16
l16 23 -1 -25 c0 -14 1 -34 3 -45 2 -14 -2 -19 -14 -17 -10 2 -18 -2 -18 -8 0
-16 29 -12 48 6 10 11 17 13 20 5 7 -21 20 -11 20 15 0 18 -4 22 -11 15 -22
-22 -39 -12 -35 19 3 19 0 31 -10 35 -19 7 -20 7 -31 -12z"/>
<path d="M1159 888 c17 -17 31 -36 31 -40 0 -5 5 -6 10 -3 7 4 6 11 -2 19 -7
8 -20 23 -28 35 -8 11 -21 21 -28 21 -9 0 -2 -13 17 -32z"/>
<path d="M2436 895 c5 -11 2 -13 -10 -9 -11 4 -16 1 -16 -10 0 -19 11 -21 28
-4 6 6 15 8 19 4 5 -4 -1 -14 -11 -22 -16 -11 -17 -14 -4 -14 19 0 30 24 21
48 -5 14 -3 15 8 5 16 -16 29 -17 29 -2 0 5 -4 7 -10 4 -5 -3 -10 -1 -10 4 0
6 -11 11 -25 11 -18 0 -23 -4 -19 -15z"/>
<path d="M2522 872 l-20 -40 23 -20 c14 -12 27 -17 30 -12 8 14 -3 30 -21 30
-18 0 -18 4 2 41 8 17 13 33 11 35 -3 3 -14 -13 -25 -34z"/>
<path d="M2573 903 c-7 -2 -13 -11 -13 -18 0 -7 -5 -15 -12 -17 -15 -5 -1 -28
18 -28 10 0 13 7 8 25 -5 19 -2 25 10 25 9 0 16 5 16 10 0 11 -7 12 -27 3z"/>
<path d="M1671 883 c8 -9 9 -14 3 -10 -7 4 -17 0 -23 -7 -10 -12 -8 -13 9 -9
13 4 25 0 30 -8 5 -7 12 -10 16 -7 9 9 -23 58 -37 58 -7 0 -6 -6 2 -17z"/>
<path d="M370 880 c0 -5 -9 -19 -20 -30 -20 -20 -20 -20 0 -20 13 0 20 7 20
20 0 11 5 20 10 20 6 0 10 5 10 10 0 6 -4 10 -10 10 -5 0 -10 -4 -10 -10z"/>
<path d="M1226 873 c-3 -3 3 -12 14 -20 11 -8 20 -21 20 -29 0 -8 5 -12 10 -9
6 3 10 1 10 -6 0 -7 2 -10 5 -7 3 3 1 16 -5 30 -12 26 -44 51 -54 41z"/>
<path d="M240 865 c0 -4 17 -23 37 -41 20 -19 32 -34 25 -34 -7 0 -12 -4 -12
-10 0 -16 17 -12 24 6 4 10 -3 23 -19 36 -20 16 -23 23 -14 34 8 10 8 14 0 14
-6 0 -11 -5 -11 -11 0 -8 -5 -8 -15 1 -8 7 -15 9 -15 5z"/>
<path d="M1204 817 c-8 -18 -7 -26 3 -36 8 -7 17 -10 21 -6 3 3 0 10 -8 15
-12 7 -12 12 -2 22 13 13 16 28 5 28 -5 0 -13 -11 -19 -23z"/>
<path d="M210 820 c-8 -5 -11 -12 -7 -17 5 -4 12 -2 16 6 6 9 14 6 30 -15 12
-15 25 -24 29 -19 4 4 2 10 -5 12 -7 2 -9 11 -6 19 4 10 0 12 -11 8 -9 -3 -16
-1 -16 5 0 13 -10 14 -30 1z"/>
<path d="M375 820 c-4 -6 -15 -8 -26 -5 -15 5 -19 1 -19 -14 0 -25 0 -25 36
-6 17 9 30 11 32 5 2 -6 8 -10 13 -10 5 0 4 9 -3 20 -14 22 -24 25 -33 10z"/>
<path d="M1340 820 c0 -5 5 -10 11 -10 5 0 7 -5 4 -10 -4 -6 -11 -8 -16 -5 -5
4 -9 0 -9 -7 0 -10 -2 -10 -9 1 -5 8 -11 9 -15 3 -9 -16 25 -24 43 -10 9 7 17
13 19 14 1 1 0 9 -4 18 -7 17 -24 22 -24 6z"/>
<path d="M2360 806 c0 -14 5 -28 11 -31 16 -10 23 3 11 18 -7 8 -9 16 -6 19 3
3 1 9 -5 13 -7 4 -11 -4 -11 -19z"/>
<path d="M2430 820 c0 -5 -7 -10 -15 -10 -10 0 -8 -6 8 -22 24 -25 37 -17 16
8 -12 14 -11 16 6 12 11 -2 19 -10 18 -16 -2 -7 2 -12 7 -12 16 0 11 37 -6 44
-23 9 -34 7 -34 -4z"/>
<path d="M520 800 c0 -17 51 -24 61 -9 7 11 11 10 23 -6 8 -11 18 -16 23 -12
4 5 -1 14 -12 20 -26 14 -95 20 -95 7z"/>
<path d="M2183 793 c-10 -4 -9 -8 2 -19 14 -15 35 -11 35 6 0 11 -22 18 -37
13z"/>
<path d="M362 774 c-16 -17 -15 -29 1 -16 10 8 52 10 52 2 0 -1 8 -3 18 -5 34
-6 16 11 -21 21 -29 8 -41 7 -50 -2z"/>
<path d="M2140 777 c0 -11 -8 -17 -22 -17 -21 -1 -22 -1 -5 -11 18 -10 18 -11
0 -25 -13 -10 -14 -13 -4 -14 8 0 11 -3 8 -6 -4 -4 3 -15 15 -25 11 -11 18
-19 13 -19 -4 0 -2 -7 5 -15 7 -8 10 -15 6 -15 -3 0 3 -9 14 -20 24 -24 34
-26 26 -5 -3 9 0 15 9 15 8 0 15 7 15 15 0 9 6 12 15 9 9 -4 15 0 15 10 0 10
6 13 15 10 8 -4 15 -1 15 6 0 6 5 8 10 5 6 -3 10 0 10 9 0 24 -23 24 -46 -1
-12 -13 -24 -23 -28 -23 -3 0 -16 -10 -28 -22 -14 -14 -23 -17 -26 -10 -2 6
-2 13 0 15 2 2 -9 20 -25 40 -15 20 -23 38 -18 42 5 3 13 -4 16 -16 4 -12 12
-18 20 -15 8 3 12 0 9 -7 -7 -20 36 -18 57 2 15 14 16 18 4 18 -8 0 -15 -4
-15 -9 0 -4 -7 -8 -15 -8 -20 0 -19 7 5 32 11 12 20 18 20 12 0 -5 16 -10 34
-11 29 -1 34 2 33 18 -1 18 -17 28 -17 12 0 -5 -11 -9 -26 -9 -23 -2 -24 -1
-7 11 10 7 15 17 11 21 -4 4 -21 -8 -37 -26 -27 -31 -29 -32 -39 -14 -10 16
-11 17 -12 2 0 -9 6 -19 13 -21 6 -3 2 -6 -10 -6 -26 -1 -43 37 -22 50 11 6
11 11 1 21 -9 9 -12 9 -12 -5z"/>
<path d="M2315 780 c-3 -5 4 -12 16 -15 12 -4 18 -12 15 -21 -3 -8 -1 -14 3
-14 5 0 12 -7 15 -16 4 -12 2 -15 -9 -10 -8 3 -15 1 -15 -4 0 -6 5 -10 11 -10
5 0 7 -4 4 -10 -3 -5 -1 -19 5 -30 7 -13 7 -20 0 -20 -5 0 -10 -7 -10 -15 0
-22 18 -18 25 6 4 12 12 18 21 15 7 -3 16 -1 19 4 4 6 -2 10 -12 10 -34 0 -46
15 -32 38 10 16 10 23 0 35 -10 13 -9 17 6 26 16 9 16 10 -4 11 -13 0 -23 4
-23 9 0 13 -28 22 -35 11z"/>
<path d="M580 759 c0 -6 -9 -8 -22 -4 -17 5 -14 0 10 -16 23 -15 30 -24 21
-30 -9 -5 -8 -11 4 -24 10 -9 15 -21 12 -26 -4 -5 -1 -9 5 -9 8 0 9 6 4 18 -4
9 -7 27 -7 40 1 12 -3 22 -9 22 -5 0 -6 9 -3 20 4 11 2 20 -4 20 -6 0 -11 -5
-11 -11z"/>
<path d="M1610 766 c0 -19 25 -54 34 -48 6 3 16 7 21 8 6 0 16 2 23 2 6 1 12
7 12 13 0 6 -7 9 -14 6 -11 -4 -13 -1 -9 11 3 11 -1 9 -11 -5 -19 -26 -36 -30
-36 -9 0 8 -4 18 -10 21 -5 3 -10 4 -10 1z"/>
<path d="M265 751 c3 -6 11 -8 17 -5 6 4 5 -3 -2 -16 -9 -18 -9 -21 0 -15 7 4
16 1 21 -6 5 -9 7 -4 6 16 -2 23 -8 31 -26 33 -15 2 -21 0 -16 -7z"/>
<path d="M746 746 c3 -7 -3 -22 -13 -31 -13 -13 -14 -20 -5 -23 6 -2 12 -10
12 -18 0 -15 21 -15 32 1 11 15 9 37 -2 30 -6 -4 -8 -11 -5 -16 4 -5 2 -9 -4
-9 -15 0 -26 23 -13 28 14 4 16 52 2 52 -5 0 -7 -6 -4 -14z"/>
<path d="M1290 745 c-8 -10 -9 -15 -1 -15 6 0 11 6 12 13 0 6 4 2 10 -11 5
-13 14 -20 20 -16 8 5 8 9 -1 14 -6 4 -11 11 -10 16 3 15 -17 15 -30 -1z"/>
<path d="M337 717 c-20 -19 -33 -38 -30 -41 4 -4 19 8 35 26 15 18 30 29 34
25 4 -4 0 -15 -9 -25 -19 -21 -22 -42 -6 -42 6 0 9 7 5 15 -8 22 4 18 26 -7
19 -23 19 -23 -1 -37 -21 -13 -31 -38 -11 -26 6 3 17 -1 26 -9 8 -9 20 -16 26
-16 6 0 1 8 -10 19 -26 22 -28 31 -7 31 19 0 19 7 0 27 -8 8 -13 19 -10 24 4
5 -1 9 -9 9 -9 0 -16 4 -16 10 0 5 13 7 29 5 28 -3 51 19 35 34 -4 3 -9 0 -11
-6 -6 -18 -40 -16 -51 2 -7 13 -14 10 -45 -18z"/>
<path d="M1570 708 c-23 -25 -23 -27 -10 -48 5 -8 12 -11 17 -7 4 5 1 12 -7
17 -10 7 -11 10 -2 10 6 0 12 7 12 15 0 17 9 19 30 5 13 -8 13 -10 -1 -15 -21
-8 -22 -45 -1 -45 13 0 14 2 4 9 -11 7 -11 11 2 24 17 17 13 42 -10 51 -7 3
-23 -4 -34 -16z"/>
<path d="M1390 711 c0 -5 6 -12 13 -15 6 -3 -8 -4 -33 -2 -25 2 -37 2 -27 -1
9 -2 17 -11 17 -19 0 -10 5 -12 13 -7 6 4 18 8 25 9 20 3 23 9 16 28 -7 17
-24 22 -24 7z"/>
<path d="M510 700 c0 -5 4 -10 9 -10 5 0 12 -11 15 -25 4 -14 12 -25 18 -25 9
0 9 3 0 12 -9 9 -8 16 5 30 10 11 11 18 5 18 -7 0 -12 -6 -12 -12 -1 -8 -6 -6
-14 5 -15 19 -26 22 -26 7z"/>
<path d="M850 696 c0 -8 -7 -16 -15 -20 -15 -5 -10 -36 6 -36 4 0 6 6 3 13 -3
8 2 20 11 27 17 14 20 30 5 30 -5 0 -10 -6 -10 -14z"/>
<path d="M1177 689 c4 -12 0 -25 -8 -29 -19 -12 -32 -1 -18 16 7 8 7 14 1 14
-15 0 -24 -32 -11 -40 8 -6 7 -9 -2 -12 -8 -3 -11 -8 -8 -12 4 -4 14 0 23 9 9
9 16 13 16 8 0 -4 5 -1 10 7 12 19 13 60 1 60 -5 0 -7 -9 -4 -21z"/>
<path d="M1890 697 c0 -9 -4 -17 -10 -17 -5 0 -10 -5 -10 -11 0 -6 6 -9 14 -6
10 4 18 -4 25 -21 8 -23 13 -20 10 4 0 4 5 11 13 16 9 6 8 8 -7 6 -13 -2 -20
3 -20 14 0 9 -4 20 -8 24 -4 4 -7 0 -7 -9z"/>
<path d="M1677 679 c-3 -10 -1 -19 5 -19 5 0 7 -4 3 -9 -3 -5 0 -13 6 -17 9
-5 10 0 7 14 -4 12 -2 22 3 22 14 0 11 17 -5 23 -8 3 -16 -2 -19 -14z"/>
<path d="M2008 688 c-6 -16 -41 -19 -50 -5 -4 7 -8 8 -8 2 0 -22 16 -33 43
-28 18 4 27 12 27 24 0 21 -6 25 -12 7z"/>
<path d="M2047 693 c-3 -3 -3 -11 0 -19 3 -8 -1 -14 -8 -14 -7 0 -10 -2 -7 -5
8 -9 38 6 32 16 -3 5 -1 9 5 9 22 0 18 -17 -10 -35 -29 -20 -37 -35 -19 -35 6
0 10 4 10 9 0 5 8 12 18 15 9 3 22 14 29 25 11 17 9 21 -17 29 -15 6 -31 8
-33 5z"/>
<path d="M1412 663 c-13 -14 -21 -27 -18 -30 5 -5 56 42 56 52 0 11 -16 2 -38
-22z"/>
<path d="M2506 664 c-4 -9 1 -28 10 -41 8 -14 13 -28 9 -31 -6 -6 -20 10 -28
33 -3 6 -8 7 -12 3 -5 -5 0 -17 10 -28 10 -11 15 -23 11 -27 -7 -7 -20 8 -29
32 -3 6 -8 7 -12 3 -4 -4 0 -19 10 -34 15 -24 16 -26 1 -21 -17 7 -23 -8 -6
-16 6 -3 5 -4 -2 -3 -7 2 -13 14 -13 29 -1 14 -5 30 -9 34 -5 4 -6 -2 -3 -14
3 -13 1 -23 -4 -23 -6 0 -5 -8 1 -19 5 -11 10 -26 10 -33 -1 -7 -8 1 -17 17
-10 18 -18 25 -21 17 -2 -7 2 -19 8 -28 7 -8 10 -17 7 -21 -4 -3 -12 6 -18 20
-7 15 -16 24 -21 21 -5 -3 -1 -18 8 -32 l17 -27 -21 19 c-25 21 -28 16 -10
-14 10 -16 10 -23 -3 -35 -15 -15 -17 -14 -29 14 -7 17 -16 31 -21 31 -13 0
-11 -13 7 -38 8 -12 13 -28 11 -35 -2 -7 -10 0 -17 16 -16 32 -26 34 -33 6 -3
-12 -10 -18 -16 -14 -14 8 -14 -11 0 -37 6 -11 8 -22 5 -25 -3 -3 -11 6 -17
21 -7 14 -17 26 -22 26 -5 0 -2 -11 7 -25 18 -28 20 -35 7 -35 -5 0 -12 10
-16 23 -3 12 -9 17 -11 10 -3 -7 0 -21 6 -32 6 -13 7 -21 1 -21 -5 0 -13 9
-16 20 -3 11 -11 20 -16 20 -13 0 -11 -14 3 -28 6 -6 9 -14 6 -18 -4 -3 -12 6
-20 20 -15 29 -43 22 -32 -8 5 -12 9 -14 14 -6 5 8 9 7 13 -5 4 -9 3 -13 -3
-10 -6 3 -10 1 -10 -6 0 -6 -9 -1 -20 12 -21 26 -26 20 -10 -11 9 -16 5 -22
-19 -35 -38 -19 -38 -19 -44 5 -3 11 -13 20 -22 20 -14 0 -16 -6 -11 -30 7
-38 -1 -39 -15 -2 -7 15 -13 22 -16 14 -3 -6 -10 -9 -16 -5 -7 4 -8 0 -3 -12
7 -20 -1 -55 -14 -55 -5 0 -13 12 -19 28 -11 26 -11 26 -7 -8 5 -33 4 -33 -7
-10 -6 14 -12 26 -13 28 0 1 -9 0 -18 -4 -13 -5 -16 -14 -12 -30 8 -30 -2 -31
-15 -1 -9 21 -9 20 -6 -6 3 -15 0 -27 -4 -27 -5 0 -9 15 -9 33 -1 30 -1 31
-15 13 -8 -11 -15 -27 -15 -35 0 -14 1 -14 10 -1 8 13 10 12 10 -2 0 -10 -7
-18 -15 -18 -9 0 -15 9 -15 25 0 14 -5 25 -11 25 -7 0 -9 -10 -5 -25 4 -14 2
-25 -4 -25 -5 0 -11 12 -11 28 l-1 27 -8 -30 c-7 -28 -8 -28 -9 -5 -1 19 -3
22 -10 11 -6 -9 -6 -22 0 -33 6 -11 6 -18 0 -18 -5 0 -14 12 -20 28 l-11 27 5
-27 c3 -16 3 -28 1 -28 -2 0 -11 -3 -20 -6 -11 -4 -16 0 -16 14 0 27 -10 52
-20 52 -5 0 -4 -14 1 -32 11 -39 3 -50 -10 -14 -10 25 -31 36 -31 16 0 -5 -7
-10 -16 -10 -12 0 -15 -7 -12 -25 3 -13 1 -22 -3 -19 -5 3 -9 14 -9 25 0 11
-4 18 -9 15 -5 -3 -7 -15 -4 -26 3 -11 1 -20 -5 -20 -6 0 -12 10 -14 22 -2 11
-11 22 -22 24 -15 2 -17 -3 -14 -27 4 -23 1 -29 -14 -29 -12 0 -18 7 -18 23 0
19 -5 23 -34 24 -30 1 -35 -3 -39 -26 -4 -24 -4 -23 -6 6 -1 24 -5 30 -18 28
-10 -2 -21 -4 -25 -4 -5 -1 -8 -8 -8 -17 0 -14 3 -14 15 -4 13 11 14 10 9 -3
-3 -8 -12 -18 -20 -21 -10 -4 -14 3 -14 24 0 31 -6 35 -34 24 -23 -9 -20 -26
4 -19 15 5 20 2 19 -12 0 -10 -3 -13 -5 -7 -3 7 -14 10 -24 7 -16 -4 -20 0
-21 18 0 22 -1 23 -8 4 -8 -19 -9 -18 -13 5 -5 23 -5 23 -8 -5 l-2 -30 -8 30
c-7 28 -8 29 -10 5 -1 -23 -2 -23 -10 -5 -8 18 -9 18 -9 -5 -1 -19 -4 -21 -10
-11 -5 8 -7 21 -4 30 4 14 3 14 -5 1 -6 -8 -8 -18 -6 -22 3 -4 -2 -8 -10 -8
-19 0 -21 11 -4 28 9 9 9 12 -1 12 -7 0 -16 -10 -19 -22 -6 -23 -6 -23 -13 2
l-7 25 -2 -25 -2 -25 -7 24 c-9 32 -26 37 -47 13 -16 -19 -50 -20 -38 -1 3 5
11 6 17 3 9 -5 9 -4 1 5 -9 10 -17 10 -33 2 -16 -9 -21 -9 -21 1 0 10 -2 10
-9 0 -7 -11 -9 -11 -14 2 -6 16 -27 18 -38 3 -3 -4 -29 4 -58 19 -29 14 -55
23 -58 21 -6 -6 85 -56 111 -62 12 -2 62 -13 111 -24 50 -11 151 -28 225 -37
194 -24 274 -16 555 50 49 11 136 41 167 57 21 11 38 17 38 13 0 -3 15 3 33
14 17 11 57 33 87 48 30 15 77 46 104 68 119 100 214 187 244 225 l34 42 -30
30 c-25 26 -30 28 -36 13z m-826 -513 c0 -10 -7 -21 -15 -25 -16 -6 -19 3 -9
28 8 22 24 20 24 -3z"/>
<path d="M1060 664 c0 -12 28 -33 35 -26 5 4 5 -3 2 -15 -5 -21 2 -28 25 -24
4 0 5 -13 3 -29 -4 -33 6 -38 25 -14 8 8 9 14 4 13 -24 -4 -25 3 -4 21 13 11
27 20 32 20 13 0 10 -18 -4 -22 -16 -6 17 -41 40 -44 8 -2 18 -8 22 -14 9 -14
50 4 50 21 0 16 -31 23 -49 12 -11 -7 -23 -7 -34 -1 -25 13 -21 30 6 23 20 -5
20 -5 3 6 -15 9 -16 13 -5 21 11 8 10 9 -3 5 -9 -3 -19 -1 -22 6 -3 9 -8 8
-15 -3 -6 -8 -11 -10 -11 -5 0 6 -4 4 -8 -3 -11 -16 -45 -4 -38 14 3 7 -4 16
-15 19 -10 4 -19 11 -19 16 0 5 -4 9 -10 9 -5 0 -10 -3 -10 -6z"/>
<path d="M2285 650 c-10 -11 -26 -20 -37 -20 -23 0 -25 -35 -2 -44 22 -9 31
-7 16 3 -10 6 -10 10 3 21 9 7 15 9 14 4 -3 -18 1 -34 10 -34 11 0 9 19 -3 39
-5 8 -3 16 5 22 18 11 26 11 34 -1 3 -5 11 -10 16 -10 14 0 2 18 -20 30 -14 7
-23 5 -36 -10z"/>
<path d="M1441 640 c0 -14 6 -38 14 -55 12 -26 13 -27 14 -8 1 12 -4 25 -10
29 -7 4 -7 10 -1 16 12 12 35 1 27 -13 -4 -5 -1 -9 4 -9 6 0 11 7 11 15 0 14
-4 17 -32 19 -7 1 -16 8 -20 16 -4 10 -7 7 -7 -10z"/>
<path d="M1353 627 c6 -13 19 -24 30 -24 18 -2 18 -1 -2 16 -11 10 -18 21 -14
25 3 3 -1 6 -9 6 -13 0 -14 -4 -5 -23z"/>
<path d="M2100 630 c0 -5 -6 -10 -12 -10 -18 -1 -53 -29 -45 -36 3 -4 13 1 22
9 22 22 43 12 37 -19 -6 -30 -22 -32 -22 -1 -1 20 -2 20 -11 4 -7 -12 -17 -15
-35 -11 -14 4 -24 2 -24 -5 0 -6 8 -8 18 -4 15 6 15 5 3 -10 -16 -20 -9 -22
20 -4 16 9 23 9 26 1 3 -9 13 -8 34 3 28 14 29 16 12 29 -11 8 -13 13 -5 14 6
0 12 5 12 10 0 6 -4 9 -9 8 -5 -2 -8 2 -7 7 0 6 7 9 14 9 6 -1 12 2 12 7 0 5
-9 9 -20 9 -11 0 -20 -4 -20 -10z"/>
<path d="M443 623 c-24 -9 -13 -18 24 -21 20 -1 35 -1 32 2 -14 12 -46 23 -56
19z"/>
<path d="M683 613 c-17 -13 -17 -14 4 -8 12 3 24 1 28 -5 7 -11 25 -4 25 9 0
16 -39 19 -57 4z"/>
<path d="M808 623 c-10 -2 -18 -8 -18 -13 0 -5 7 -7 15 -4 8 4 15 2 15 -4 0
-6 -6 -13 -12 -15 -8 -3 -6 -6 5 -6 12 -1 17 7 17 24 0 14 -1 24 -2 24 -2 -1
-11 -3 -20 -6z"/>
<path d="M860 620 c0 -6 7 -13 15 -16 11 -5 12 -11 5 -24 -16 -29 -12 -37 6
-12 8 12 22 22 30 22 8 0 14 5 14 11 0 6 -6 9 -14 6 -8 -3 -20 1 -26 9 -14 16
-30 19 -30 4z"/>
<path d="M947 600 c-3 -11 0 -20 6 -20 8 0 7 -4 -2 -9 -8 -5 -10 -14 -6 -21 4
-7 2 -16 -6 -21 -10 -6 -7 -8 11 -7 20 3 25 -2 30 -27 3 -19 8 -26 13 -18 4 7
5 24 3 38 -4 22 -2 25 15 20 14 -5 17 -3 13 9 -8 20 -30 21 -38 0 -5 -12 -8
-13 -20 -2 -7 7 -11 15 -7 18 9 7 10 60 1 60 -4 0 -10 -9 -13 -20z"/>
<path d="M2148 604 c-8 -7 4 -74 14 -74 5 0 8 8 6 18 -2 9 3 16 10 15 6 -2 12
-1 12 2 0 8 -38 44 -42 39z"/>
<path d="M845 588 c-4 -10 -15 -20 -26 -23 -26 -9 -24 -24 3 -17 14 3 19 2 14
-6 -4 -7 -2 -12 4 -12 7 0 9 7 6 17 -4 9 -1 20 5 24 6 3 9 13 6 20 -3 11 -6
10 -12 -3z"/>
<path d="M1682 589 c-19 -6 -30 -14 -26 -20 5 -8 9 -8 13 0 6 9 56 9 56 1 0
-1 12 -3 28 -5 15 -2 27 0 27 5 0 11 -30 21 -41 14 -5 -3 -9 0 -9 5 0 13 -3
13 -48 0z"/>
<path d="M536 581 c-4 -5 0 -12 6 -14 10 -4 9 -8 -2 -16 -8 -5 -11 -13 -7 -17
3 -4 12 -2 20 4 7 6 18 7 26 3 10 -7 8 -12 -10 -24 -18 -13 -20 -19 -10 -30 9
-12 8 -18 -4 -31 -15 -15 -14 -16 11 -16 21 0 24 3 15 14 -9 11 -8 15 5 20 8
3 16 6 17 6 1 0 3 -11 3 -25 2 -20 -3 -25 -22 -25 -24 0 -35 -16 -11 -17 6 0
19 -4 28 -7 13 -6 16 0 17 29 1 20 4 40 7 44 2 5 -4 11 -15 14 -11 3 -20 1
-20 -4 0 -5 -4 -9 -10 -9 -19 0 -10 22 21 51 18 16 29 33 25 36 -3 4 -13 -2
-21 -13 -13 -18 -14 -18 -15 -1 0 10 -4 16 -9 12 -5 -3 -16 2 -25 10 -8 8 -17
11 -20 6z"/>
<path d="M1353 570 c6 -24 -14 -32 -30 -11 -6 9 -15 12 -20 7 -4 -5 -2 -11 5
-13 6 -3 12 -9 12 -15 0 -16 28 -39 35 -28 3 5 1 10 -5 10 -6 0 -9 4 -5 10 3
5 11 8 18 6 7 -1 9 -1 6 1 -3 2 -4 15 -1 28 3 16 0 25 -8 25 -7 0 -10 -8 -7
-20z"/>
<path d="M730 570 c10 -6 11 -10 3 -10 -7 0 -13 -9 -13 -20 0 -11 5 -20 11
-20 6 0 8 7 5 15 -3 9 1 18 10 22 13 5 13 7 2 14 -7 5 -17 9 -23 9 -5 0 -3 -5
5 -10z"/>
<path d="M420 560 c0 -5 8 -14 18 -19 18 -9 24 -11 45 -11 9 0 9 -2 -1 -9 -11
-7 -11 -11 1 -22 7 -8 17 -21 20 -29 4 -8 4 1 1 20 -7 37 -31 73 -45 65 -4 -3
-10 -1 -14 5 -8 13 -25 13 -25 0z"/>
<path d="M1430 565 c0 -11 24 -55 31 -55 4 0 10 7 13 16 4 12 2 15 -9 10 -10
-4 -15 1 -15 14 0 11 -4 20 -10 20 -5 0 -10 -2 -10 -5z"/>
<path d="M625 520 c-3 -5 3 -11 14 -15 10 -3 22 -17 25 -31 5 -17 12 -24 21
-20 7 2 15 0 18 -7 2 -8 5 -8 11 1 4 7 3 12 -3 12 -6 0 -9 6 -7 13 1 6 1 9 -1
5 -9 -17 -31 -7 -37 16 -6 25 -32 41 -41 26z"/>
<path d="M810 522 c0 -7 4 -12 9 -12 16 0 21 -29 7 -42 -11 -11 -11 -16 0 -26
8 -7 15 -8 19 -2 3 6 0 10 -7 10 -7 1 0 12 17 25 16 13 25 28 21 32 -5 4 -11
2 -13 -5 -4 -10 -11 -8 -29 9 -13 12 -24 17 -24 11z"/>
<path d="M738 513 c-19 -5 -25 -23 -8 -23 6 0 10 -7 10 -16 0 -8 4 -13 9 -10
5 3 9 17 9 31 0 14 -1 24 -2 24 0 -1 -9 -3 -18 -6z"/>
<path d="M783 490 c0 -25 3 -27 19 -17 10 7 18 14 18 17 0 3 -8 10 -18 17 -16
10 -19 8 -19 -17z"/>
<path d="M1986 505 c-9 -9 -16 -22 -16 -28 0 -7 5 -4 11 6 5 9 17 17 24 17 8
0 15 -8 15 -17 0 -15 -2 -16 -10 -3 -5 8 -11 12 -14 10 -2 -3 1 -13 8 -22 11
-15 13 -15 23 2 10 14 8 21 -6 34 -17 16 -20 16 -35 1z"/>
<path d="M2079 515 c-1 -3 -2 -11 -3 -17 -1 -7 -8 -12 -15 -10 -9 2 -11 -3 -7
-13 3 -9 6 -19 6 -21 0 -2 4 -4 10 -4 5 0 7 7 4 15 -4 9 0 15 8 15 7 0 14 9
14 20 0 17 -14 29 -17 15z"/>
<path d="M912 491 c7 -11 16 -17 20 -15 4 3 8 0 8 -5 0 -6 5 -11 11 -11 8 0 8
4 0 14 -9 11 -9 15 1 20 7 3 3 3 -9 0 -13 -3 -23 -1 -23 5 0 6 -5 11 -10 11
-6 0 -5 -8 2 -19z"/>
<path d="M1670 490 c0 -5 5 -10 11 -10 6 0 9 -6 6 -12 -7 -20 12 -48 31 -48
14 0 14 2 3 9 -8 5 -15 18 -16 28 0 10 -4 24 -9 31 -9 14 -26 16 -26 2z"/>
<path d="M1120 481 c0 -5 6 -16 13 -23 8 -7 12 -19 11 -26 -1 -7 0 -8 3 -2 8
16 21 12 28 -10 3 -11 10 -20 15 -20 4 0 6 9 3 20 -3 11 -9 20 -13 20 -13 0
-50 37 -43 44 3 3 1 6 -5 6 -7 0 -12 -4 -12 -9z"/>
<path d="M634 433 c4 -34 51 -57 66 -33 13 20 12 30 -1 30 -5 0 -8 -4 -4 -9 3
-5 1 -13 -5 -16 -16 -10 -42 3 -34 16 4 8 9 7 15 -2 5 -8 9 -9 9 -4 0 10 -35
45 -44 45 -3 0 -3 -12 -2 -27z"/>
<path d="M780 442 c0 -5 -9 -19 -20 -32 -11 -12 -17 -27 -13 -33 3 -5 10 -1
16 9 15 28 17 30 26 15 5 -8 8 -1 7 18 -1 17 -4 31 -8 31 -5 0 -8 -4 -8 -8z"/>
<path d="M1920 430 c0 -22 -15 -27 -23 -7 -3 7 -6 5 -6 -6 -1 -10 6 -20 14
-23 8 -4 13 -10 10 -14 -3 -5 -1 -11 5 -15 6 -4 8 -11 4 -16 -3 -6 -14 0 -25
12 -14 16 -19 18 -19 7 0 -18 37 -54 46 -45 11 11 14 66 4 72 -11 6 -2 36 14
47 7 5 4 8 -6 8 -11 0 -18 -8 -18 -20z"/>
<path d="M848 409 c-2 -16 -9 -23 -20 -21 -10 2 -18 -2 -18 -8 0 -5 9 -10 20
-10 11 0 20 4 20 9 0 5 9 13 20 16 11 3 20 11 20 16 0 6 -5 7 -11 3 -6 -3 -15
-1 -19 6 -6 9 -9 6 -12 -11z"/>
<path d="M1946 414 c-4 -9 -3 -20 0 -23 4 -3 9 0 11 7 4 10 8 10 19 1 8 -7 18
-9 22 -5 7 7 -24 36 -39 36 -4 0 -10 -7 -13 -16z"/>
<path d="M1280 371 c0 -13 40 -35 48 -27 3 3 2 6 -3 6 -4 0 -2 7 5 15 9 10 9
15 1 15 -6 0 -11 -5 -11 -10 0 -7 -6 -7 -20 0 -13 7 -20 7 -20 1z"/>
<path d="M1103 346 c-10 -11 -9 -16 5 -21 13 -5 14 -8 3 -14 -18 -12 -2 -19
37 -16 39 2 53 13 18 13 -33 0 -59 25 -43 41 6 6 7 11 2 11 -6 -1 -15 -7 -22
-14z"/>
<path d="M2092 302 c2 -8 9 -17 16 -20 8 -2 10 2 5 15 -6 16 -5 17 12 3 16
-13 18 -13 13 0 -6 20 -50 22 -46 2z"/>
</g>
</svg>
