<?xml version="1.0" standalone="no"?>
<!DOCTYPE svg PUBLIC "-//W3C//DTD SVG 20010904//EN"
 "http://www.w3.org/TR/2001/REC-SVG-20010904/DTD/svg10.dtd">
<svg version="1.0" xmlns="http://www.w3.org/2000/svg"
 width="300.000000pt" height="300.000000pt" viewBox="0 0 300.000000 300.000000"
 preserveAspectRatio="xMidYMid meet">
<metadata>
Created by potrace 1.10, written by Peter Selinger 2001-2011
</metadata>
<g transform="translate(0.000000,300.000000) scale(0.100000,-0.100000)"
fill="#000000" stroke="none">
<path d="M1495 2918 c-6 -30 -23 -169 -22 -188 0 -8 -3 -34 -7 -56 -6 -32 -4
-45 9 -58 15 -14 15 -17 1 -22 -9 -3 -16 -15 -16 -26 0 -11 -5 -28 -10 -38 -7
-13 -6 -36 5 -76 10 -39 12 -61 5 -68 -6 -6 -10 -26 -10 -45 -1 -34 -21 -76
-32 -66 -8 9 -108 -16 -108 -26 0 -9 46 -5 93 8 22 6 51 -55 35 -74 -5 -7 -7
-17 -3 -23 10 -16 -14 -40 -41 -40 -13 0 -24 -4 -24 -8 0 -4 16 -6 36 -4 28 3
35 1 32 -9 -3 -8 -21 -15 -40 -17 -34 -3 -36 -1 -42 32 -5 25 -13 36 -27 38
-15 2 -26 18 -40 58 -10 30 -19 64 -19 76 0 14 -12 31 -30 44 -16 12 -30 28
-30 35 0 20 -32 85 -42 85 -4 0 -8 9 -8 20 0 27 -37 100 -51 100 -6 0 -9 7 -5
15 3 8 -6 28 -19 44 -14 16 -25 34 -25 40 0 6 -4 11 -8 11 -5 0 -28 39 -52 86
-25 47 -48 88 -52 90 -36 22 -8 -146 49 -296 3 -8 8 -24 10 -34 2 -11 8 -25
15 -33 6 -7 14 -30 19 -51 19 -91 31 -127 44 -135 15 -8 35 -67 35 -103 0 -15
-10 -26 -31 -35 -18 -7 -43 -22 -58 -34 -35 -30 -59 -29 -53 2 3 18 0 23 -17
23 -11 0 -28 11 -36 24 -9 13 -31 31 -49 40 -35 16 -57 36 -126 115 -25 28
-53 51 -62 51 -10 0 -17 5 -15 12 1 6 -8 17 -20 23 -13 7 -31 19 -41 28 -24
22 -36 21 -30 -1 4 -12 -1 -18 -13 -18 -22 0 -25 16 -7 34 10 10 5 20 -24 47
-20 19 -41 35 -47 35 -21 0 -11 -36 19 -70 16 -19 29 -39 30 -44 0 -5 16 -28
35 -52 19 -23 35 -47 35 -52 0 -15 36 -43 45 -35 4 5 5 3 2 -3 -4 -7 0 -17 8
-24 8 -7 12 -17 9 -22 -4 -5 10 -23 29 -39 20 -16 39 -38 42 -49 3 -10 16 -22
28 -26 24 -7 76 -54 77 -68 0 -5 15 -22 32 -38 27 -24 30 -31 18 -39 -13 -8
-13 -11 3 -20 22 -13 22 -30 -3 -57 -12 -12 -18 -22 -14 -22 3 0 1 -7 -7 -16
-14 -17 -61 -13 -86 7 -7 7 -28 13 -46 15 -54 6 -67 10 -79 22 -7 7 -19 12
-28 12 -8 0 -28 9 -44 19 -16 11 -35 17 -41 14 -7 -2 -16 1 -20 6 -3 6 -10 9
-15 6 -5 -3 -23 1 -39 10 -16 8 -37 12 -45 9 -9 -3 -22 1 -31 9 -8 9 -24 13
-35 10 -12 -3 -31 -1 -43 6 -28 14 -145 51 -163 51 -32 0 -15 -20 57 -65 9 -5
36 -25 59 -43 24 -18 55 -35 69 -39 14 -3 39 -17 54 -30 16 -12 40 -23 53 -23
37 0 137 -56 157 -87 8 -13 37 -18 37 -7 0 16 -23 44 -35 44 -8 0 -15 4 -15 9
0 16 -99 71 -129 71 -15 0 -36 9 -46 20 -10 11 -27 22 -39 26 -44 13 -96 38
-96 47 0 5 8 6 17 2 27 -11 82 -25 135 -35 26 -5 56 -14 68 -20 12 -6 28 -9
37 -6 14 6 60 -21 95 -56 11 -11 33 -18 56 -18 54 0 151 -34 168 -58 8 -11 28
-23 44 -27 17 -4 44 -13 61 -22 16 -8 40 -12 52 -9 30 7 43 4 39 -10 -3 -16
50 -53 92 -65 19 -5 50 -20 70 -34 l36 -24 15 22 c19 27 19 37 1 37 -8 0 -23
11 -34 25 -11 14 -24 25 -28 25 -5 0 -28 10 -51 22 -41 22 -55 38 -33 38 6 0
10 -5 10 -12 0 -6 3 -8 6 -5 4 4 -2 19 -12 34 -11 15 -21 37 -24 48 -3 11 -25
32 -47 48 -23 15 -45 36 -48 47 -3 11 -17 20 -33 22 -21 2 -36 19 -76 83 -27
44 -55 84 -63 89 -8 4 -22 17 -31 27 -9 10 -22 19 -28 19 -12 0 -24 13 -72 79
-9 13 -29 36 -44 53 -16 16 -28 33 -28 37 0 5 -11 20 -26 36 -38 41 -21 42 22
1 20 -20 41 -36 45 -36 11 0 34 -20 111 -93 33 -31 64 -55 69 -51 5 3 9 1 9
-4 0 -5 16 -20 35 -33 18 -13 37 -34 40 -46 3 -13 12 -23 20 -23 8 0 15 -3 16
-7 5 -51 30 -80 94 -112 25 -12 45 -26 45 -29 0 -4 16 -24 35 -44 19 -19 41
-50 49 -68 8 -21 27 -40 47 -49 20 -9 42 -32 54 -54 23 -42 23 -42 49 -22 19
14 18 15 -7 52 -14 21 -29 50 -33 66 -3 15 -15 32 -25 38 -11 5 -19 18 -19 29
0 10 -4 22 -10 25 -5 3 -10 30 -10 59 0 40 -6 60 -25 86 -14 19 -28 36 -32 39
-19 14 -33 54 -33 96 0 51 -25 123 -50 145 -10 8 -20 37 -24 64 -3 27 -10 54
-14 60 -5 6 -17 36 -26 66 -10 30 -23 61 -29 68 -6 8 -12 21 -13 30 -1 10 -5
26 -9 37 -11 30 41 -34 56 -67 6 -16 15 -28 20 -28 5 0 9 -9 9 -20 0 -10 7
-23 15 -28 9 -4 19 -31 24 -61 5 -29 14 -56 20 -60 20 -13 94 -145 92 -166 0
-11 2 -31 5 -45 6 -24 7 -24 15 -5 6 14 7 10 3 -15 -6 -41 15 -71 60 -87 17
-5 31 -16 34 -24 3 -12 2 -12 -6 0 -6 8 -17 11 -27 7 -16 -6 -16 -8 -1 -31 9
-13 16 -38 16 -55 0 -32 21 -72 55 -105 15 -15 22 -35 24 -75 1 -30 4 -57 6
-59 10 -10 54 11 54 27 1 9 4 35 7 58 4 31 2 43 -12 55 -11 8 -15 9 -10 2 4
-8 1 -13 -8 -13 -9 0 -16 7 -16 15 0 8 -9 15 -20 15 -11 0 -20 4 -20 10 0 5
13 8 29 7 16 -1 27 -6 24 -11 -3 -5 0 -6 8 -4 9 4 13 18 12 43 -2 21 4 61 11
89 9 33 13 81 10 136 -7 130 -5 166 11 203 4 10 4 39 0 65 -7 51 -7 59 0 147
2 33 4 88 5 123 0 34 4 62 9 62 6 0 10 -8 10 -17 0 -16 4 -65 15 -176 2 -15 0
-29 -3 -31 -3 -2 -5 -84 -4 -183 2 -98 2 -191 1 -208 -2 -33 -2 -115 -1 -155
1 -14 -1 -71 -3 -127 -5 -94 -4 -102 15 -112 23 -13 26 -9 30 44 2 22 8 43 13
46 6 4 8 17 5 28 -4 16 5 31 34 58 32 29 39 43 39 73 0 20 7 45 15 56 8 10 15
26 15 35 0 9 6 22 14 28 8 7 23 31 35 55 11 24 27 50 35 58 8 9 17 34 19 57 2
22 11 49 19 59 37 45 88 142 85 163 -3 14 5 33 20 49 12 13 23 31 23 38 0 16
51 105 56 99 3 -2 -2 -17 -10 -32 -8 -16 -13 -32 -10 -37 3 -4 -2 -18 -10 -30
-9 -12 -16 -41 -16 -63 0 -22 -7 -49 -15 -59 -8 -11 -15 -29 -15 -41 0 -11
-16 -45 -35 -75 -23 -36 -35 -66 -35 -90 0 -19 -7 -48 -15 -64 -8 -15 -15 -35
-15 -43 0 -8 -12 -25 -26 -38 -16 -15 -26 -35 -26 -52 0 -16 -7 -37 -14 -48
-8 -11 -14 -34 -14 -52 0 -19 -9 -42 -22 -57 -42 -45 -48 -55 -48 -83 0 -17
-13 -44 -32 -67 l-32 -39 23 -19 c24 -18 24 -18 48 14 13 18 30 36 38 41 8 4
15 19 15 32 0 14 5 25 10 25 6 0 28 11 50 25 22 14 46 25 54 25 7 0 26 17 41
38 16 20 39 46 51 57 12 11 24 28 26 39 2 10 32 38 68 61 69 46 140 112 140
132 0 6 30 33 66 60 37 26 74 55 83 63 55 51 101 81 101 66 0 -9 -6 -16 -12
-16 -7 0 -25 -19 -40 -43 -15 -23 -58 -72 -97 -110 -38 -37 -73 -77 -77 -90
-7 -25 -38 -57 -54 -57 -5 0 -10 -5 -10 -10 0 -6 -11 -16 -25 -22 -19 -8 -22
-14 -14 -24 6 -7 8 -18 4 -25 -6 -8 -10 -8 -15 1 -13 21 -75 -24 -97 -70 -20
-39 -72 -90 -92 -90 -6 0 -11 -7 -11 -16 0 -9 -17 -22 -40 -31 -30 -12 -43
-24 -52 -50 -9 -24 -25 -41 -50 -54 -41 -21 -44 -27 -25 -51 9 -12 18 -14 35
-7 12 4 22 13 22 18 0 5 17 15 38 21 20 7 47 22 60 33 24 23 28 24 115 38 43
7 71 19 111 49 46 35 60 40 105 40 29 0 50 4 47 9 -4 5 2 7 13 4 10 -3 22 0
25 6 4 6 14 11 23 11 9 0 26 9 37 19 12 11 34 22 50 25 50 9 200 59 224 74 12
8 25 12 28 9 9 -9 -6 -27 -29 -38 -25 -10 -59 -31 -67 -40 -9 -10 -90 -39
-110 -39 -10 0 -27 -8 -37 -18 -10 -10 -34 -26 -53 -35 -19 -8 -45 -25 -58
-37 -18 -17 -31 -21 -54 -16 -17 3 -36 2 -42 -3 -6 -4 -28 -14 -49 -21 -21 -6
-43 -20 -50 -31 -6 -10 -21 -19 -33 -19 -11 0 -28 -8 -38 -19 -11 -12 -25 -16
-42 -13 -29 5 -69 -13 -100 -45 -15 -17 -36 -24 -79 -27 -31 -3 -59 -7 -61 -9
-8 -7 16 -58 24 -53 4 3 27 0 51 -5 26 -6 48 -6 55 0 13 11 158 7 177 -5 19
-11 191 -13 205 -2 7 5 43 2 89 -8 65 -15 84 -15 125 -5 33 9 54 9 67 2 27
-14 231 -20 273 -8 l35 11 -55 7 c-30 5 -83 9 -117 10 -35 2 -63 6 -63 9 0 4
-18 7 -41 8 -22 1 -45 4 -50 7 -5 3 -36 1 -70 -5 -41 -8 -64 -8 -73 -1 -7 6
-22 8 -34 5 -19 -5 -68 21 -69 36 -2 52 -16 111 -26 107 -7 -3 -11 -10 -9 -18
2 -7 7 -32 11 -56 8 -42 8 -43 -26 -52 -41 -12 -103 -3 -103 14 0 7 -3 27 -6
44 -4 19 -2 31 4 31 6 0 13 -18 17 -41 5 -30 10 -38 18 -30 8 8 8 23 0 54 -7
23 -8 45 -4 49 4 5 40 16 81 27 55 14 78 25 92 45 11 14 28 26 39 26 11 0 37
11 59 25 22 14 47 25 55 25 9 0 36 13 59 30 24 16 46 27 49 23 5 -5 23 7 84
57 7 6 16 10 21 10 4 0 32 16 62 35 30 19 63 35 73 35 17 0 24 25 8 34 -8 5
-111 -11 -141 -22 -8 -3 -19 -6 -25 -7 -43 -6 -125 -30 -125 -37 0 -5 -4 -7
-9 -3 -5 3 -29 -3 -53 -14 -24 -11 -68 -27 -98 -35 -31 -9 -78 -28 -104 -41
-27 -14 -66 -25 -85 -25 -50 -1 -167 -60 -163 -83 4 -26 -6 -21 -23 13 -19 37
-19 44 0 36 13 -4 13 -2 5 14 -16 30 9 37 31 9 14 -18 19 -20 19 -8 0 9 -7 22
-15 29 -8 7 -15 18 -15 26 0 26 18 23 49 -8 17 -17 34 -29 37 -25 9 9 -23 45
-46 52 -10 3 -21 13 -24 21 -3 8 -2 13 3 10 5 -3 14 1 21 9 19 23 27 19 62
-35 18 -27 34 -48 35 -46 7 7 -19 62 -39 83 -21 22 -17 43 8 43 8 0 14 7 14
15 0 8 15 30 33 48 17 19 43 53 57 77 14 23 36 48 50 55 14 7 43 32 65 55 30
31 37 43 27 49 -11 7 -10 10 3 14 10 5 14 3 9 -4 -4 -7 -1 -10 7 -7 8 3 15 14
17 25 2 11 32 51 68 89 35 38 64 72 64 76 0 19 -25 18 -53 -3 -17 -13 -58 -40
-89 -61 -32 -21 -58 -43 -58 -48 0 -6 -8 -10 -18 -10 -24 0 -42 -19 -34 -38 4
-11 1 -14 -11 -9 -8 3 -21 0 -27 -8 -6 -8 -18 -11 -25 -8 -9 3 -19 -5 -25 -19
-6 -13 -27 -34 -47 -48 -19 -13 -39 -34 -44 -47 -5 -13 -13 -23 -19 -23 -5 0
-10 -7 -10 -15 0 -8 -7 -15 -15 -15 -8 0 -25 -11 -39 -25 -28 -28 -39 -30 -58
-12 -32 31 -72 57 -87 57 -9 -1 3 -12 27 -26 24 -15 42 -34 42 -44 0 -28 -20
-29 -63 -1 -36 24 -38 28 -32 61 4 19 10 40 15 45 4 6 8 22 8 36 0 15 7 42 16
59 9 18 16 41 16 50 0 10 8 28 19 41 17 22 45 119 46 160 0 9 6 23 13 32 8 9
12 26 11 39 -2 13 -1 28 2 33 3 6 14 37 23 70 10 33 22 68 27 77 12 24 12 23
-16 23 -25 0 -42 -25 -30 -45 3 -5 2 -10 -2 -10 -16 0 -84 -98 -94 -134 -6
-20 -14 -36 -19 -36 -14 0 -40 -55 -40 -85 0 -15 -9 -40 -21 -56 -11 -16 -17
-34 -13 -40 4 -7 3 -9 -3 -6 -11 7 -73 -73 -73 -93 0 -9 -4 -9 -12 -2 -16 12
-136 37 -144 29 -13 -13 10 -27 45 -27 94 0 124 -36 77 -93 -22 -27 -25 -28
-62 -18 -48 13 -64 14 -64 2 0 -6 20 -13 46 -17 34 -5 44 -10 42 -23 -3 -12
-14 -15 -48 -13 l-45 2 33 -14 c39 -18 45 -50 7 -40 -37 9 -30 -4 8 -15 l32
-9 -30 -2 c-16 -1 -36 -2 -44 -1 -7 2 -10 -2 -6 -8 3 -6 14 -11 23 -12 13 0
12 -3 -6 -11 -26 -13 -27 -12 -35 30 -5 25 -3 32 9 32 9 0 12 5 8 12 -9 14
-10 40 -16 314 -3 116 -8 216 -12 223 -7 11 -19 162 -18 221 1 46 -34 68 -43
28z m-355 -794 c0 -6 7 -15 16 -18 9 -4 14 -9 11 -13 -4 -3 -3 -11 2 -17 4 -6
13 -25 19 -43 9 -28 8 -32 -11 -37 -28 -7 -33 0 -16 21 13 15 12 15 -12 0 -14
-10 -29 -14 -32 -10 -14 13 -6 31 16 38 14 4 17 8 9 12 -7 3 -21 -2 -32 -12
-17 -15 -21 -15 -49 -1 -27 14 -58 53 -49 61 2 1 25 17 53 34 46 29 51 30 62
14 7 -9 13 -22 13 -29z m728 -15 c36 -19 52 -35 52 -52 0 -25 -12 -27 -42 -6
-16 12 -31 19 -33 17 -2 -2 9 -12 26 -23 32 -22 42 -75 14 -75 -9 0 -12 6 -9
15 4 10 -5 21 -25 32 -22 12 -30 24 -27 36 2 10 1 31 -4 48 -5 18 -5 27 1 24
5 -4 10 2 10 12 1 15 2 15 6 2 2 -9 16 -22 31 -30z m-448 -100 c0 -5 -4 -7
-10 -4 -5 3 -10 1 -10 -4 0 -6 5 -11 10 -11 6 0 10 -12 10 -27 0 -16 -4 -23
-9 -17 -12 13 -22 60 -14 68 10 10 23 7 23 -5z m180 -1 c0 -7 -7 -21 -14 -31
-18 -23 -31 -5 -16 23 12 22 30 27 30 8z m244 -3 c11 -8 16 -18 13 -22 -8 -8
-57 17 -57 29 0 13 23 9 44 -7z m-626 -53 c2 -12 8 -22 14 -22 6 0 6 -6 -2
-15 -15 -18 -26 -13 -33 15 -3 11 -1 18 4 14 5 -3 9 0 9 5 0 6 -7 11 -15 11
-8 0 -15 5 -15 11 0 20 35 4 38 -19z m618 13 c26 -19 -1 -20 -36 0 -23 13 -23
14 -4 15 11 0 29 -7 40 -15z m-16 -37 c0 -13 -4 -18 -8 -13 -12 17 -35 17 -28
0 3 -9 2 -13 -4 -10 -6 3 -10 2 -10 -4 0 -6 -7 -8 -16 -4 -14 5 -13 9 7 24 13
9 27 15 31 13 4 -3 8 0 8 5 0 6 5 11 10 11 6 0 10 -10 10 -22z m-844 -7 c-3
-5 3 -11 14 -14 13 -3 18 -11 14 -20 -3 -8 2 -17 10 -20 12 -5 13 -12 5 -37
-15 -42 -42 -41 -35 3 6 32 6 32 -7 6 -10 -22 -16 -25 -34 -18 -13 5 -25 4
-29 -2 -4 -6 -11 -6 -20 2 -16 13 -19 39 -4 39 6 0 10 8 10 17 0 25 26 48 55
51 14 1 24 -2 21 -7z m84 -87 c0 -27 29 -64 36 -46 3 6 10 12 16 12 7 0 6 -5
-1 -14 -7 -8 -25 -14 -41 -14 -26 1 -28 3 -19 20 9 17 8 19 -10 13 -25 -7 -28
7 -6 29 8 8 12 23 9 33 -5 15 -4 15 5 3 6 -8 11 -24 11 -36z m903 -4 c3 -11 0
-20 -6 -20 -7 0 -5 -5 3 -10 8 -5 10 -10 5 -10 -20 0 -32 21 -27 45 5 28 17
25 25 -5z m-29 -42 c6 -4 7 -10 3 -14 -3 -4 -13 -2 -21 5 -11 9 -15 9 -18 -1
-3 -8 -7 -6 -11 6 -4 10 -3 15 3 11 6 -3 13 2 17 11 5 14 8 15 11 3 3 -7 10
-17 16 -21z m51 -178 c-10 -15 16 -22 33 -9 9 7 7 2 -5 -11 -25 -27 -37 -21
-47 24 -6 26 -5 28 8 17 9 -7 14 -17 11 -21z m125 -22 c0 -30 -27 -20 -32 12
-3 17 -2 33 1 36 8 8 31 -27 31 -48z"/>
<path d="M1099 2113 c-9 -2 -21 -15 -27 -28 -9 -20 -9 -23 3 -18 8 3 15 9 15
13 0 5 9 12 20 15 11 3 20 11 20 16 0 9 -4 10 -31 2z"/>
<path d="M1656 2664 c-3 -8 -2 -14 2 -15 15 -1 40 -7 60 -13 13 -4 22 -1 26 9
5 13 -5 19 -26 16 -4 0 -18 3 -32 9 -18 7 -26 5 -30 -6z"/>
<path d="M1270 2650 c-25 -3 -51 -9 -58 -13 -17 -12 -4 -30 17 -22 25 10 52
15 99 17 26 1 41 6 39 12 -4 12 -30 14 -97 6z"/>
<path d="M1757 2653 c-11 -11 -8 -20 9 -27 23 -9 37 3 23 20 -13 15 -22 18
-32 7z"/>
<path d="M1620 2533 c0 -4 28 -15 63 -24 34 -9 70 -20 80 -24 12 -5 17 -3 17
9 0 9 -14 19 -37 25 -65 16 -123 23 -123 14z"/>
<path d="M1290 2519 c-30 -5 -59 -14 -65 -21 -7 -8 -1 -9 24 -4 19 3 59 9 88
13 29 3 53 10 53 14 0 11 -26 10 -100 -2z"/>
<path d="M2090 2515 c0 -8 4 -15 9 -15 4 0 29 -18 54 -40 48 -43 57 -47 57
-27 -1 11 -100 97 -114 97 -3 0 -6 -7 -6 -15z"/>
<path d="M894 2506 c-3 -9 -11 -16 -17 -16 -18 0 -87 -52 -81 -61 5 -8 86 38
92 54 2 4 10 7 18 7 16 0 19 16 4 25 -6 3 -13 -1 -16 -9z"/>
<path d="M1600 2443 c0 -10 161 -65 169 -58 9 10 -15 23 -74 39 -33 10 -68 19
-77 22 -10 3 -18 1 -18 -3z"/>
<path d="M1355 2429 c-22 -4 -57 -11 -77 -14 -24 -4 -38 -11 -38 -20 0 -17 14
-19 38 -6 10 5 44 12 77 16 33 3 61 8 63 10 6 5 -8 25 -16 24 -4 -1 -25 -5
-47 -10z"/>
<path d="M2000 2401 c0 -5 20 -21 45 -35 25 -15 54 -36 64 -47 12 -13 21 -17
25 -10 4 6 -21 31 -55 56 -61 45 -79 53 -79 36z"/>
<path d="M927 2371 c-54 -32 -73 -48 -65 -56 6 -7 128 66 128 77 0 13 -11 9
-63 -21z"/>
<path d="M1360 2346 c-36 -7 -63 -16 -60 -21 9 -19 130 2 130 21 0 8 -1 13 -2
13 -2 -1 -32 -7 -68 -13z"/>
<path d="M1950 2320 c0 -5 4 -10 10 -10 5 0 34 -20 64 -45 30 -24 58 -40 61
-36 3 5 -9 20 -27 32 -18 13 -35 26 -38 29 -9 11 -54 40 -62 40 -5 0 -8 -4 -8
-10z"/>
<path d="M1016 2312 c-3 -5 -25 -19 -50 -32 -45 -23 -59 -40 -32 -40 7 0 24 8
37 18 13 10 36 23 52 30 15 6 27 16 27 22 0 12 -27 14 -34 2z"/>
<path d="M1590 2282 c0 -6 14 -13 30 -16 17 -3 44 -9 60 -12 17 -3 30 -1 30 4
0 6 -13 13 -30 16 -16 3 -43 9 -60 12 -17 3 -30 1 -30 -4z"/>
<path d="M1027 2220 c-26 -16 -47 -34 -47 -40 0 -15 16 -12 31 6 7 8 30 24 51
35 21 11 38 22 38 24 0 13 -30 2 -73 -25z"/>
<path d="M1939 2215 c23 -14 47 -25 52 -25 5 0 9 -4 9 -9 0 -5 7 -11 15 -15 8
-3 15 -1 15 4 0 14 -89 70 -113 70 -17 0 -12 -6 22 -25z"/>
<path d="M1362 2210 c-40 -9 -49 -17 -35 -31 8 -8 13 -8 17 0 4 6 20 11 37 11
16 0 29 4 29 9 0 16 -13 18 -48 11z"/>
<path d="M511 2163 c-44 -52 -49 -63 -26 -63 8 0 15 4 15 8 0 5 10 19 22 33
12 13 30 34 41 47 17 18 18 22 5 22 -9 0 -35 -21 -57 -47z"/>
<path d="M2410 2200 c0 -5 6 -13 13 -17 6 -4 18 -20 26 -35 14 -28 31 -37 31
-17 0 6 -12 26 -26 45 -26 33 -44 44 -44 24z"/>
<path d="M1360 2150 c0 -5 11 -10 24 -10 14 0 28 5 31 10 4 6 -7 10 -24 10
-17 0 -31 -4 -31 -10z"/>
<path d="M675 2142 c-12 -8 -55 -69 -55 -77 0 -15 20 -1 48 34 28 35 32 61 7
43z"/>
<path d="M2308 2144 c-6 -6 31 -74 61 -114 38 -48 31 -11 -10 54 -44 70 -43
69 -51 60z"/>
<path d="M737 2070 c-9 -11 -17 -23 -17 -26 0 -3 -12 -21 -26 -40 -15 -19 -24
-38 -20 -41 7 -8 55 45 56 61 0 6 12 23 27 38 18 19 22 28 12 28 -8 0 -22 -9
-32 -20z"/>
<path d="M2230 2079 c0 -27 68 -131 81 -123 7 4 5 12 -4 22 -7 10 -26 38 -41
65 -27 47 -36 56 -36 36z"/>
<path d="M597 2043 c-12 -11 -7 -33 7 -33 12 0 26 20 26 36 0 7 -26 5 -33 -3z"/>
<path d="M806 2009 c-30 -36 -49 -76 -43 -93 2 -6 11 5 21 25 9 20 26 46 37
58 11 12 19 27 17 33 -2 6 -17 -4 -32 -23z"/>
<path d="M2166 2021 c-3 -5 -1 -15 6 -23 7 -7 24 -30 38 -50 35 -53 45 -47 16
10 -27 53 -51 78 -60 63z"/>
<path d="M346 1784 c-8 -22 -8 -24 8 -24 12 0 26 20 26 36 0 12 -29 2 -34 -12z"/>
<path d="M660 1774 c6 -15 8 -40 4 -54 -3 -14 -8 -34 -10 -45 -2 -11 -7 -32
-10 -47 -4 -18 -2 -28 5 -28 6 0 13 12 17 28 26 124 26 124 56 118 19 -4 28
-1 28 7 0 24 -16 36 -58 43 l-43 7 11 -29z"/>
<path d="M2616 1759 c9 -52 12 -78 13 -101 1 -19 31 -26 31 -8 0 6 -4 10 -8
10 -5 0 -7 15 -6 33 4 46 -9 100 -25 105 -10 3 -12 -5 -5 -39z"/>
<path d="M481 1746 c-13 -54 -14 -76 -2 -76 5 0 14 20 20 44 6 24 13 51 17 60
4 10 1 16 -9 16 -9 0 -19 -17 -26 -44z"/>
<path d="M2480 1773 c0 -5 5 -28 11 -52 5 -24 10 -59 11 -78 1 -19 6 -32 12
-30 19 6 -6 167 -25 167 -5 0 -9 -3 -9 -7z"/>
<path d="M595 1758 c-26 -74 -43 -144 -35 -152 5 -5 15 15 25 50 9 33 20 69
26 82 11 29 11 32 -1 32 -6 0 -13 -6 -15 -12z"/>
<path d="M2376 1762 c-3 -4 1 -26 9 -48 8 -21 14 -55 15 -74 0 -37 14 -69 25
-58 10 10 -16 167 -30 178 -7 6 -16 7 -19 2z"/>
<path d="M341 1731 c-14 -25 -14 -71 -1 -71 6 0 10 13 10 28 0 15 5 33 11 39
7 7 7 13 0 17 -5 4 -15 -2 -20 -13z"/>
<path d="M753 1730 c-3 -11 -9 -20 -13 -20 -8 0 -31 -112 -24 -119 8 -9 16 9
21 51 3 24 10 51 15 61 9 18 11 18 29 1 11 -10 16 -21 10 -28 -13 -18 -21 -75
-11 -81 6 -3 11 2 12 12 0 10 2 23 3 28 2 6 3 18 4 28 1 21 41 23 41 2 0 -13
7 -15 34 -10 29 6 34 4 33 -11 -1 -10 4 -19 11 -20 6 -1 17 -2 23 -3 5 0 8 -5
5 -10 -4 -5 0 -11 6 -14 9 -3 10 -8 3 -16 -11 -11 -38 -13 -140 -9 -47 2 -59
0 -57 -11 2 -11 -1 -11 -20 1 -14 9 -31 12 -43 8 -21 -8 -82 -6 -145 5 -21 4
-41 2 -44 -3 -3 -5 -41 -7 -85 -5 -48 2 -82 0 -86 -6 -3 -7 -28 -8 -64 -5 -40
5 -61 3 -66 -5 -4 -7 -5 -14 -3 -16 4 -4 79 -5 248 -2 58 1 150 -1 205 -4 64
-4 119 -2 152 6 38 9 53 9 56 1 2 -7 24 -10 55 -9 64 3 71 3 203 -3 102 -5
107 -4 112 16 7 26 -9 33 -62 28 -28 -2 -37 0 -34 9 3 9 -4 13 -23 13 -18 0
-40 11 -60 31 -22 21 -45 33 -68 34 -19 2 -48 13 -65 26 -17 12 -34 20 -37 16
-3 -3 -24 8 -47 24 -47 34 -77 37 -84 9z m263 -134 c3 -8 21 -17 40 -20 19 -4
34 -11 34 -15 0 -5 -19 -5 -42 0 -24 4 -46 8 -50 9 -5 0 -8 9 -8 20 0 23 18
27 26 6z"/>
<path d="M2313 1673 c11 -72 19 -103 29 -103 8 0 4 68 -8 117 -10 38 -27 27
-21 -14z"/>
<path d="M2174 1663 c3 -10 8 -30 12 -45 8 -34 24 -37 24 -5 0 38 -12 67 -27
67 -9 0 -12 -6 -9 -17z"/>
<path d="M121 1516 c-8 -9 -10 -17 -5 -18 65 -11 252 -26 274 -22 17 4 21 3
12 -4 -20 -13 102 -23 158 -12 26 5 50 5 56 -1 6 -5 28 -8 49 -7 22 1 41 -4
43 -10 2 -7 9 -12 16 -12 7 0 10 -13 8 -39 -2 -21 1 -49 8 -61 18 -33 22 -18
10 35 -7 31 -7 52 -1 58 5 5 7 15 5 22 -3 7 2 15 12 19 12 4 15 2 10 -9 -4
-11 2 -15 27 -16 18 -1 37 -2 42 -4 6 -1 16 -3 23 -3 6 -1 12 -13 12 -26 0
-14 4 -27 9 -31 6 -3 7 10 4 32 -6 35 -5 37 11 24 14 -12 19 -12 26 -2 6 11 9
11 13 0 4 -10 6 -10 6 -1 1 17 21 15 21 -3 0 -8 5 -15 10 -15 6 0 10 5 10 10
0 6 5 10 10 10 15 0 12 -36 -5 -50 -12 -10 -15 -9 -15 5 0 13 -6 16 -24 11
-15 -4 -26 -1 -29 7 -3 6 -6 2 -6 -9 -1 -12 -7 -24 -15 -27 -12 -5 -12 -11 -3
-31 14 -29 61 -36 71 -11 4 10 16 14 38 11 31 -3 88 19 88 35 0 14 70 39 109
39 32 0 41 4 41 18 0 23 -12 39 -30 41 -8 0 -32 4 -53 7 -28 5 -43 2 -56 -11
-12 -10 -21 -12 -25 -6 -4 5 -32 9 -64 9 -32 0 -68 4 -79 11 -29 15 -33 14
-27 -6 5 -14 4 -15 -4 -4 -13 19 -85 23 -78 4 4 -8 -2 -13 -17 -12 -12 0 -16
3 -9 6 6 2 12 9 12 14 0 11 -47 10 -83 -3 -19 -8 -31 -7 -41 2 -18 14 -149 21
-189 9 -16 -4 -38 -4 -50 1 -12 5 -76 14 -142 20 -66 5 -134 13 -151 16 -21 4
-34 1 -43 -10z m929 -115 c5 -11 10 -26 9 -33 0 -10 -2 -10 -6 1 -5 11 -7 11
-14 0 -7 -11 -9 -11 -9 3 0 9 -3 23 -6 32 -9 23 13 20 26 -3z m-90 -41 c-12
-22 -30 -18 -30 6 0 8 9 14 20 14 18 0 19 -3 10 -20z"/>
<path d="M1765 1482 c-3 -3 -5 -13 -5 -23 0 -13 10 -20 38 -24 20 -3 45 -10
54 -16 10 -5 28 -9 40 -9 12 0 37 -14 54 -31 19 -18 46 -33 64 -35 30 -4 89
-26 120 -45 8 -5 28 -17 44 -27 15 -9 44 -27 63 -39 18 -13 48 -23 65 -23 17
0 39 -6 47 -13 41 -35 153 -97 174 -97 13 0 38 -11 57 -25 19 -14 40 -25 47
-25 19 0 76 -30 69 -37 -3 -3 -13 -2 -23 2 -10 5 -29 10 -43 11 -14 2 -26 8
-28 14 -2 5 -22 10 -45 10 -23 0 -51 7 -61 15 -11 8 -29 15 -41 15 -11 0 -45
16 -75 35 -57 36 -95 44 -103 23 -4 -9 -6 -8 -6 2 -1 10 -22 22 -59 33 -34 10
-68 28 -81 43 -15 17 -28 23 -41 19 -10 -3 -35 3 -56 14 -22 12 -47 18 -60 15
-16 -4 -25 0 -33 14 -11 21 -85 64 -94 56 -8 -8 -71 27 -86 48 -12 18 -14 18
-32 2 -10 -9 -19 -20 -19 -24 0 -16 82 -89 103 -92 15 -2 30 -22 52 -64 31
-63 72 -114 91 -114 6 0 17 -11 24 -25 7 -14 22 -25 33 -25 20 0 52 -32 67
-67 5 -13 17 -23 25 -23 9 0 14 -4 10 -9 -11 -18 17 -57 63 -89 46 -31 72 -59
144 -157 20 -27 44 -57 53 -66 14 -15 14 -17 -2 -30 -9 -8 -14 -9 -10 -3 6 10
-34 54 -49 54 -3 0 -42 36 -86 81 -44 44 -82 78 -86 75 -9 -10 -92 78 -92 98
0 16 -3 17 -12 8 -19 -19 -28 -14 -28 14 0 29 -58 94 -83 94 -15 0 -77 58 -77
71 0 4 -13 21 -30 37 l-30 30 0 -25 c0 -27 -17 -27 -34 0 -8 13 -5 21 14 39
l24 22 -43 19 c-30 13 -46 28 -59 55 -9 20 -17 38 -18 40 -1 2 -14 -4 -28 -13
l-25 -17 34 -50 c19 -28 35 -59 35 -69 0 -10 8 -23 19 -28 19 -11 29 -43 38
-126 2 -27 13 -59 23 -70 36 -41 72 -105 67 -119 -9 -24 19 -120 48 -161 14
-21 25 -50 25 -64 0 -14 9 -46 20 -70 11 -24 20 -52 20 -62 0 -11 11 -42 25
-69 14 -27 21 -52 16 -55 -11 -6 -41 33 -41 52 0 7 -4 13 -9 13 -5 0 -15 15
-21 34 -6 19 -17 40 -25 46 -8 7 -17 28 -21 49 -9 55 -15 72 -23 67 -4 -3 -17
17 -29 44 -12 28 -26 50 -31 50 -11 0 -22 33 -30 85 -3 22 -11 39 -17 38 -6
-1 -9 10 -6 27 3 22 -2 35 -22 53 -14 13 -26 35 -26 47 0 13 -8 28 -17 35 -12
9 -17 24 -15 52 3 33 -2 45 -31 75 -35 37 -38 45 -38 116 0 40 -2 43 -22 38
-12 -3 -25 -6 -29 -6 -14 0 -20 -117 -7 -139 10 -15 10 -24 3 -31 -7 -7 -8
-24 -4 -43 6 -28 1 -59 -17 -107 -4 -8 -5 -19 -4 -24 5 -23 4 -126 -2 -132 -3
-4 1 -17 9 -29 12 -18 13 -29 5 -44 -6 -11 -11 -31 -11 -45 0 -14 -5 -28 -10
-31 -7 -4 -8 -22 -3 -48 4 -23 7 -60 6 -82 -7 -200 -13 -289 -21 -297 -13 -13
-20 185 -16 482 2 140 4 261 3 268 0 6 0 29 0 50 4 253 5 237 -18 240 -22 3
-22 3 -25 -77 -1 -13 -7 -26 -13 -28 -8 -3 -11 -14 -7 -28 5 -19 -2 -31 -30
-56 -23 -19 -36 -40 -36 -55 0 -14 -7 -41 -15 -61 -8 -19 -15 -43 -15 -52 0
-9 -9 -22 -19 -28 -11 -7 -25 -29 -31 -50 -7 -21 -19 -45 -26 -54 -8 -8 -18
-37 -23 -63 -5 -26 -18 -57 -30 -70 -11 -12 -21 -26 -21 -31 0 -4 -12 -24 -27
-44 -16 -20 -28 -40 -29 -46 -3 -53 -17 -93 -30 -88 -9 3 -14 -1 -14 -12 0
-19 -31 -75 -41 -75 -9 0 10 71 22 86 5 6 7 18 4 26 -8 20 40 160 70 204 15
23 25 51 25 73 0 21 7 46 15 57 8 10 15 28 15 40 0 11 14 33 30 47 21 19 30
36 30 57 0 17 7 42 16 55 10 16 14 34 10 50 -5 18 -2 27 9 31 21 8 65 85 65
113 0 24 27 71 48 84 11 7 10 12 -4 28 -20 22 -44 25 -44 5 0 -8 -13 -26 -30
-39 -17 -15 -30 -36 -30 -49 0 -19 -14 -29 -70 -56 -38 -19 -76 -45 -85 -58
-8 -13 -31 -38 -50 -56 -19 -17 -35 -37 -35 -45 0 -16 -49 -62 -67 -63 -7 0
-13 -4 -13 -9 0 -5 -10 -11 -23 -15 -24 -6 -98 -86 -110 -118 -3 -10 -13 -18
-21 -18 -9 0 -23 -11 -32 -25 -9 -14 -23 -25 -31 -25 -8 0 -28 -14 -45 -30
-16 -17 -33 -30 -37 -30 -3 0 -21 -13 -39 -29 -17 -17 -32 -26 -32 -21 0 5 8
15 18 22 9 7 29 31 43 53 15 22 56 70 93 106 36 37 66 72 66 78 0 16 92 101
109 101 11 0 11 3 1 15 -12 14 -7 20 14 16 28 -5 108 82 99 109 -1 3 19 19 43
35 24 17 47 38 50 47 3 9 21 22 40 28 21 7 40 23 49 40 18 35 19 44 3 34 -7
-5 -8 -3 -4 5 5 7 10 10 14 7 4 -4 52 19 80 40 6 4 -22 44 -30 44 -5 0 -16 -8
-26 -17 -25 -24 -59 -43 -76 -43 -8 0 -21 -8 -28 -18 -7 -11 -24 -25 -37 -32
-24 -12 -24 -13 -6 -26 10 -8 16 -17 12 -20 -4 -4 -15 4 -25 16 l-19 23 -7
-27 c-4 -15 -4 -31 -1 -36 4 -6 1 -10 -6 -10 -6 0 -9 -8 -6 -20 3 -11 2 -20
-3 -20 -11 0 -21 43 -12 50 4 3 9 16 10 30 1 24 -1 25 -41 22 -26 -3 -52 -13
-67 -27 -38 -35 -80 -53 -138 -59 -52 -6 -92 -22 -142 -56 -14 -9 -41 -20 -60
-23 -45 -8 -159 -41 -230 -66 -30 -11 -59 -17 -65 -13 -5 3 -1 9 10 12 46 12
145 71 145 86 0 8 4 12 10 9 5 -3 20 0 32 7 13 7 37 14 53 16 17 2 39 12 50
23 12 10 36 24 55 31 19 6 46 22 60 35 19 17 32 22 52 17 17 -3 41 1 59 10 18
9 37 16 44 16 19 0 52 42 38 47 -7 3 -13 12 -13 20 0 9 -7 21 -16 27 -9 7 -17
24 -17 39 -3 40 -17 33 -15 -8 1 -19 4 -35 8 -35 13 0 3 -44 -11 -48 -8 -2
-21 -6 -29 -9 -8 -4 -17 -7 -20 -8 -3 -1 -24 -5 -48 -10 -24 -4 -47 -15 -52
-25 -5 -9 -24 -23 -42 -31 -18 -7 -50 -23 -70 -36 -21 -13 -48 -23 -61 -23
-13 0 -32 -9 -42 -20 -10 -11 -22 -17 -26 -14 -5 3 -12 -1 -15 -10 -3 -8 -12
-12 -21 -9 -9 4 -21 0 -27 -8 -14 -18 -89 -69 -102 -69 -5 0 -29 -14 -54 -30
-25 -16 -53 -30 -62 -30 -12 0 -18 -8 -18 -21 0 -19 4 -21 33 -14 17 4 48 9
67 11 19 2 46 8 60 13 14 5 45 14 70 21 25 7 54 16 65 20 11 5 29 11 40 13 11
3 43 14 71 25 28 10 68 22 88 26 29 6 36 11 32 23 -4 10 -2 13 7 10 8 -3 38 3
68 13 30 9 57 16 61 13 4 -2 19 -26 34 -53 15 -28 31 -50 36 -50 10 0 -7 34
-34 69 -14 18 -15 27 -7 37 6 8 15 12 19 9 4 -3 13 2 20 10 7 8 23 15 35 15
12 0 28 7 35 15 17 21 57 19 62 -2 3 -10 -3 -31 -12 -46 l-17 -28 -21 28 c-11
15 -24 25 -27 21 -4 -4 4 -21 19 -38 25 -31 36 -67 16 -55 -6 3 -10 -4 -10
-17 0 -17 -6 -23 -25 -24 -13 -1 -32 -9 -40 -18 -9 -9 -23 -16 -31 -16 -8 0
-14 -7 -14 -16 0 -8 -18 -33 -40 -54 -22 -21 -40 -44 -40 -52 -1 -16 -27 -48
-58 -69 -50 -36 -103 -92 -98 -105 3 -8 -1 -14 -9 -14 -8 0 -28 -20 -45 -44
-16 -25 -47 -60 -67 -79 -25 -24 -34 -40 -29 -52 6 -16 8 -16 35 2 94 60 141
94 141 103 0 5 8 10 18 10 9 0 32 16 51 35 19 19 42 35 52 35 11 0 19 3 19 8
0 15 59 72 74 72 9 0 16 7 16 16 0 16 55 74 71 74 5 0 8 5 6 12 -1 7 3 12 9
13 7 0 21 11 31 24 15 18 29 24 55 23 31 -1 35 1 31 18 -3 12 0 20 7 20 7 0
10 8 8 18 -4 15 0 18 22 17 20 -1 27 2 23 12 -3 8 3 20 13 27 16 12 16 16 5
30 -8 9 -11 19 -8 22 3 3 10 -4 17 -15 6 -12 16 -21 23 -21 8 0 13 -14 13 -36
0 -32 -2 -35 -23 -29 -27 6 -30 -3 -6 -20 25 -18 8 -38 -20 -22 -12 6 -25 17
-29 22 -5 6 -8 6 -8 -2 0 -6 16 -20 35 -32 23 -14 33 -25 29 -36 -8 -19 -15
-19 -40 0 -21 16 -44 20 -44 8 0 -5 14 -16 31 -25 17 -10 27 -22 24 -28 -3 -5
-1 -10 4 -10 6 0 11 -4 11 -10 0 -5 -7 -7 -15 -4 -11 5 -17 -3 -21 -25 -4 -17
-10 -31 -14 -31 -4 0 -6 -14 -4 -31 3 -20 -4 -44 -17 -65 -11 -19 -18 -38 -15
-43 3 -5 -3 -19 -13 -32 -17 -23 -36 -84 -48 -157 -3 -18 -9 -35 -14 -38 -5
-3 -9 -18 -9 -34 0 -15 -9 -49 -20 -74 -10 -25 -17 -46 -15 -46 2 0 -2 -19
-10 -41 -18 -51 -19 -59 -1 -59 7 0 19 14 26 30 7 17 26 49 42 72 24 32 27 42
16 50 -10 6 -8 8 7 6 14 -2 22 5 30 28 5 17 22 45 38 63 16 19 27 44 27 62 0
16 12 48 28 71 15 22 32 48 37 57 16 26 27 30 41 16 17 -17 118 -49 136 -43 7
3 -20 15 -60 28 -40 13 -75 27 -78 31 -2 4 -2 19 2 33 6 24 6 24 47 10 54 -20
132 -30 124 -17 -4 6 -26 13 -49 17 -62 9 -108 26 -108 38 0 15 42 82 57 91 7
4 13 17 13 28 0 19 14 20 68 3 6 -2 12 1 12 6 0 5 -11 12 -25 16 -14 3 -25 13
-25 21 0 26 19 51 37 49 10 -2 12 -1 6 1 -7 3 -13 9 -13 14 0 5 6 9 13 9 9 0
8 3 -2 9 -9 6 -10 11 -3 15 6 4 9 12 6 19 -3 8 6 25 20 40 15 16 20 28 13 31
-9 3 -9 7 0 13 8 6 9 14 3 23 -15 24 -12 33 6 16 19 -20 12 -80 -16 -118 -17
-23 -17 -28 -5 -38 8 -7 13 -16 10 -20 -3 -5 -1 -20 5 -34 6 -16 6 -27 0 -31
-14 -9 -12 -99 1 -112 7 -7 8 -19 4 -30 -13 -31 -12 -53 3 -53 10 0 12 -4 5
-12 -5 -7 -9 -31 -8 -53 1 -22 -3 -47 -8 -56 -6 -10 -7 -24 -1 -35 5 -11 9
-50 10 -89 1 -38 5 -113 9 -165 4 -52 7 -116 6 -141 -1 -33 3 -49 14 -53 9 -3
15 0 15 9 0 8 4 15 8 15 9 0 34 199 34 266 0 21 6 63 15 92 8 29 12 61 8 70
-13 29 -17 93 -7 105 5 7 8 32 7 57 -1 25 0 39 2 32 13 -34 20 8 16 101 l-3
104 30 -1 c36 -1 41 -18 8 -28 -22 -6 -22 -6 4 -7 15 -1 30 4 33 9 12 20 26
10 15 -10 -7 -13 -21 -20 -40 -20 -17 0 -30 -4 -30 -9 0 -16 33 -18 67 -4 39
16 41 13 68 -90 12 -47 25 -73 40 -83 13 -8 25 -27 28 -42 3 -15 16 -43 29
-62 14 -20 23 -41 21 -47 -3 -7 9 -32 26 -57 17 -25 31 -50 31 -57 0 -6 16
-31 35 -55 19 -23 35 -47 35 -53 0 -5 14 -34 31 -63 17 -29 35 -60 39 -68 10
-20 25 -10 24 15 -3 35 -14 99 -24 130 -5 17 -14 50 -21 75 -6 25 -14 52 -17
60 -3 8 -4 19 -3 24 1 4 -5 19 -14 32 -8 13 -22 56 -30 96 -9 40 -22 79 -30
88 -18 20 -43 100 -37 118 5 16 -17 72 -29 72 -5 0 -9 10 -9 21 0 22 -36 88
-54 101 -6 4 -7 11 -2 15 5 4 11 2 13 -4 5 -15 33 -17 33 -3 0 6 7 10 17 10
15 0 15 -1 0 -18 -24 -26 -21 -39 3 -17 16 15 23 16 33 6 9 -9 7 -16 -13 -31
-14 -10 -22 -21 -19 -24 3 -4 17 3 32 14 14 11 30 20 35 20 15 0 72 -53 72
-66 0 -6 7 -17 15 -24 8 -7 12 -16 9 -21 -3 -5 2 -9 11 -9 9 0 34 -18 55 -40
21 -22 44 -40 50 -40 7 0 57 -45 111 -100 55 -55 106 -100 113 -100 7 0 35
-21 62 -46 57 -54 92 -79 100 -71 7 7 -13 44 -42 80 -13 16 -24 34 -24 40 0 7
-16 29 -35 50 -19 21 -33 42 -31 46 3 4 -10 23 -29 42 -19 19 -35 41 -35 50 0
9 -11 24 -24 33 -14 8 -33 29 -42 46 -10 16 -26 33 -36 36 -21 6 -68 50 -68
63 0 4 -9 16 -20 26 -11 10 -20 29 -20 43 0 14 -8 30 -17 37 -15 11 -15 14 5
40 12 15 22 34 22 43 0 12 8 13 42 8 23 -4 47 -11 53 -16 5 -4 31 -11 58 -15
26 -4 50 -11 53 -16 3 -5 13 -9 23 -9 10 0 29 -8 42 -18 13 -11 60 -27 104
-37 44 -10 84 -22 90 -27 5 -4 22 -8 39 -8 16 0 57 -11 90 -24 81 -32 140 -43
134 -25 -2 7 -20 22 -39 32 -19 11 -61 39 -93 63 -33 24 -66 44 -74 44 -8 0
-30 14 -49 30 -18 17 -45 30 -58 30 -27 0 -82 28 -135 70 -19 15 -45 30 -57
34 -20 7 -21 9 -9 44 7 20 16 56 20 80 5 34 3 42 -9 42 -9 0 -15 -9 -15 -22 0
-48 -25 -128 -39 -128 -16 0 -91 49 -91 59 0 4 5 12 11 18 6 6 11 30 12 54 l2
43 195 3 c107 1 242 5 300 9 58 3 129 7 158 7 72 2 69 23 -5 31 -32 4 -71 3
-88 -1 -30 -8 -729 -8 -917 0 -54 2 -100 2 -103 -1z m238 -56 c13 -10 15 -16
6 -21 -6 -4 -15 -2 -19 4 -4 7 -11 11 -16 10 -18 -3 -25 1 -19 11 8 14 26 12
48 -4z m175 2 c26 1 32 -3 28 -14 -3 -9 -6 -31 -6 -50 0 -27 -4 -34 -20 -34
-18 0 -20 4 -14 40 4 25 3 40 -4 40 -6 0 -12 -10 -14 -22 -2 -13 -10 -24 -19
-26 -12 -2 -15 4 -12 30 l3 33 -14 -35 -14 -35 -4 35 c-4 31 -6 33 -13 13 -8
-25 -25 -31 -25 -9 0 8 -6 16 -12 19 -21 7 55 26 82 20 14 -3 40 -5 58 -5z
m-195 -240 c-4 -22 -3 -22 11 2 13 22 15 23 21 7 4 -10 0 -28 -10 -44 l-18
-27 -15 22 c-9 14 -25 22 -43 22 -18 0 -29 5 -29 14 0 10 9 13 28 11 16 -2 35
1 43 6 8 5 15 9 16 9 0 0 -1 -10 -4 -22z m70 -35 l-4 -28 18 28 c16 24 53 38
53 20 -1 -16 -45 -87 -58 -91 -6 -2 -16 7 -21 20 -8 19 -10 20 -10 4 -1 -15
-4 -16 -16 -6 -20 17 -19 25 7 60 25 34 37 32 31 -7z m-789 -67 c-3 -8 -11
-13 -18 -10 -9 3 -12 -4 -11 -23 2 -18 1 -20 -2 -5 -2 12 -8 22 -13 22 -4 0
-10 6 -13 13 -3 8 7 13 29 14 25 2 32 0 28 -11z m342 -44 c-1 -16 -8 -37 -15
-48 -11 -17 -12 -15 -8 14 3 24 0 32 -12 32 -13 1 -12 3 3 15 29 22 36 19 32
-13z"/>
<path d="M655 1393 c13 -79 17 -93 26 -93 12 0 11 5 -2 73 -13 63 -34 80 -24
20z"/>
<path d="M790 1393 c0 -34 12 -63 27 -63 10 0 11 4 3 19 -5 11 -10 29 -10 40
0 12 -4 21 -10 21 -5 0 -10 -8 -10 -17z"/>
<path d="M2267 1403 c-11 -18 -19 -115 -9 -109 9 5 22 54 27 99 2 17 -10 24
-18 10z"/>
<path d="M2404 1326 c-27 -88 -27 -129 1 -63 19 45 39 136 32 144 -3 3 -18
-34 -33 -81z"/>
<path d="M473 1361 c3 -15 9 -51 13 -80 4 -28 10 -51 15 -51 8 0 6 41 -5 95
-3 11 -5 30 -5 43 -1 12 -6 22 -12 22 -7 0 -9 -11 -6 -29z"/>
<path d="M2514 1377 c-3 -9 -4 -22 -2 -29 3 -7 -6 -39 -18 -71 -20 -50 -21
-58 -7 -55 21 4 59 146 43 162 -6 6 -12 4 -16 -7z"/>
<path d="M345 1337 c7 -76 18 -127 27 -127 6 0 7 16 4 38 -4 20 -7 56 -8 80
-1 26 -6 42 -14 42 -8 0 -11 -12 -9 -33z"/>
<path d="M573 1354 c3 -11 9 -38 12 -61 6 -41 20 -62 32 -49 3 3 1 18 -5 33
-6 15 -13 41 -15 57 -2 17 -9 32 -16 34 -9 3 -11 -2 -8 -14z"/>
<path d="M2646 1339 c-14 -45 -15 -79 -2 -79 17 0 31 69 17 83 -7 7 -12 6 -15
-4z"/>
<path d="M2627 1243 c-10 -10 -8 -43 2 -43 9 0 21 24 21 41 0 11 -14 12 -23 2z"/>
<path d="M2149 1088 c-7 -18 -14 -37 -16 -43 -3 -5 7 4 21 20 26 30 34 55 17
55 -5 0 -15 -15 -22 -32z"/>
<path d="M2223 1068 c-6 -14 -26 -42 -44 -62 -17 -20 -30 -38 -28 -41 13 -13
92 88 87 112 -2 13 -6 11 -15 -9z"/>
<path d="M780 1047 c0 -14 33 -67 42 -67 4 0 8 3 8 8 0 10 -49 69 -50 59z"/>
<path d="M2279 1003 c-18 -27 -39 -52 -46 -56 -15 -9 -18 -37 -4 -37 8 0 101
124 101 135 0 18 -24 -2 -51 -42z"/>
<path d="M2342 929 c-45 -65 -48 -96 -5 -44 30 36 63 87 63 98 0 20 -20 1 -58
-54z"/>
<path d="M620 963 c0 -12 4 -25 10 -28 5 -3 17 -21 26 -40 9 -19 20 -35 25
-35 15 0 10 12 -26 70 -26 41 -35 49 -35 33z"/>
<path d="M731 970 c0 -16 22 -50 33 -50 11 0 6 14 -14 40 -13 16 -20 20 -19
10z"/>
<path d="M1901 915 c-13 -14 -22 -28 -19 -30 4 -4 58 42 58 50 0 12 -17 3 -39
-20z"/>
<path d="M2461 854 c-46 -59 -49 -87 -3 -39 31 33 62 76 62 88 0 17 -18 2 -59
-49z"/>
<path d="M516 881 c-8 -12 21 -61 35 -61 5 0 8 -3 7 -7 -2 -5 0 -9 5 -10 11
-4 7 9 -18 50 -13 22 -26 34 -29 28z"/>
<path d="M1926 859 c-42 -31 -30 -38 18 -10 28 16 47 42 29 40 -4 0 -26 -14
-47 -30z"/>
<path d="M1030 871 c0 -11 57 -51 73 -51 14 0 7 18 -10 23 -10 4 -28 14 -40
23 -14 10 -23 12 -23 5z"/>
<path d="M986 818 c19 -26 104 -73 104 -59 0 6 -15 17 -34 26 -19 9 -42 25
-52 36 -24 27 -39 24 -18 -3z"/>
<path d="M1650 819 c-8 -5 -25 -9 -37 -9 -14 0 -23 -6 -23 -15 0 -18 4 -18 53
-4 35 9 46 22 29 33 -4 2 -14 1 -22 -5z"/>
<path d="M1987 815 c-4 -8 -25 -24 -47 -35 -41 -21 -52 -38 -14 -22 62 26 112
72 80 72 -8 0 -16 -7 -19 -15z"/>
<path d="M1320 792 c0 -14 70 -26 83 -13 7 7 4 10 -9 9 -10 0 -31 3 -46 7 -17
4 -28 3 -28 -3z"/>
<path d="M2014 740 c-60 -35 -85 -60 -61 -60 9 0 18 4 22 10 3 5 28 21 55 36
28 15 50 31 50 36 0 13 -12 9 -66 -22z"/>
<path d="M1645 755 c-5 -2 -23 -6 -40 -10 -23 -5 -26 -8 -14 -15 17 -10 99 8
99 21 0 9 -25 11 -45 4z"/>
<path d="M1290 739 c0 -7 78 -29 106 -29 10 0 14 3 10 7 -10 11 -116 31 -116
22z"/>
<path d="M965 724 c11 -8 27 -20 35 -27 27 -22 40 -29 40 -19 0 5 -18 21 -40
36 -42 27 -69 36 -35 10z"/>
<path d="M865 690 c-5 -8 -1 -16 8 -22 9 -4 22 -14 29 -21 24 -23 88 -59 88
-49 0 6 -23 24 -50 42 -28 18 -54 39 -59 47 -6 12 -10 13 -16 3z"/>
<path d="M1649 686 c-3 -3 -20 -8 -39 -11 -62 -11 -61 -28 0 -21 74 9 100 16
100 27 0 9 -53 13 -61 5z"/>
<path d="M2063 653 c-34 -20 -60 -40 -57 -45 6 -9 88 35 119 64 30 28 6 21
-62 -19z"/>
<path d="M1705 609 c-16 -5 -50 -12 -75 -15 -24 -2 -49 -9 -55 -15 -7 -8 9 -9
55 -5 74 7 130 23 130 37 0 11 -15 10 -55 -2z"/>
<path d="M2150 554 c-61 -44 -49 -62 14 -21 19 12 35 28 36 35 0 17 -10 14
-50 -14z"/>
<path d="M790 560 c0 -5 4 -10 8 -10 4 0 25 -16 46 -35 32 -29 66 -45 66 -31
0 5 -108 86 -115 86 -3 0 -5 -4 -5 -10z"/>
<path d="M1220 501 c0 -11 49 -26 120 -37 64 -9 39 10 -30 24 -30 6 -63 14
-72 17 -11 4 -18 3 -18 -4z"/>
<path d="M1668 497 c-32 -6 -58 -14 -58 -19 0 -10 1 -10 80 3 36 5 69 14 75
20 11 11 -18 10 -97 -4z"/>
<path d="M1750 380 c-8 -5 -32 -10 -52 -10 -21 0 -38 -4 -38 -10 0 -5 13 -10
29 -10 49 0 91 12 91 26 0 16 -9 17 -30 4z"/>
<path d="M1252 350 c2 -7 13 -14 24 -15 10 -1 25 -4 33 -6 7 -2 16 2 18 9 3 7
-3 12 -14 12 -10 0 -29 3 -42 7 -17 4 -22 2 -19 -7z"/>
</g>
</svg>
